G04 #@! TF.GenerationSoftware,KiCad,Pcbnew,10.0.1*
G04 #@! TF.CreationDate,2026-05-08T17:52:14+03:00*
G04 #@! TF.ProjectId,pcb_ver_2,7063625f-7665-4725-9f32-2e6b69636164,rev?*
G04 #@! TF.SameCoordinates,Original*
G04 #@! TF.FileFunction,Copper,L2,Bot*
G04 #@! TF.FilePolarity,Positive*
%FSLAX46Y46*%
G04 Gerber Fmt 4.6, Leading zero omitted, Abs format (unit mm)*
G04 Created by KiCad (PCBNEW 10.0.1) date 2026-05-08 17:52:14*
%MOMM*%
%LPD*%
G01*
G04 APERTURE LIST*
G04 Aperture macros list*
%AMRoundRect*
0 Rectangle with rounded corners*
0 $1 Rounding radius*
0 $2 $3 $4 $5 $6 $7 $8 $9 X,Y pos of 4 corners*
0 Add a 4 corners polygon primitive as box body*
4,1,4,$2,$3,$4,$5,$6,$7,$8,$9,$2,$3,0*
0 Add four circle primitives for the rounded corners*
1,1,$1+$1,$2,$3*
1,1,$1+$1,$4,$5*
1,1,$1+$1,$6,$7*
1,1,$1+$1,$8,$9*
0 Add four rect primitives between the rounded corners*
20,1,$1+$1,$2,$3,$4,$5,0*
20,1,$1+$1,$4,$5,$6,$7,0*
20,1,$1+$1,$6,$7,$8,$9,0*
20,1,$1+$1,$8,$9,$2,$3,0*%
G04 Aperture macros list end*
G04 #@! TA.AperFunction,SMDPad,CuDef*
%ADD10RoundRect,0.237500X-0.237500X0.300000X-0.237500X-0.300000X0.237500X-0.300000X0.237500X0.300000X0*%
G04 #@! TD*
G04 #@! TA.AperFunction,ComponentPad*
%ADD11R,1.700000X1.700000*%
G04 #@! TD*
G04 #@! TA.AperFunction,ComponentPad*
%ADD12C,1.700000*%
G04 #@! TD*
G04 #@! TA.AperFunction,ComponentPad*
%ADD13R,1.524000X1.524000*%
G04 #@! TD*
G04 #@! TA.AperFunction,ComponentPad*
%ADD14C,1.524000*%
G04 #@! TD*
G04 #@! TA.AperFunction,ComponentPad*
%ADD15R,2.000000X1.905000*%
G04 #@! TD*
G04 #@! TA.AperFunction,ComponentPad*
%ADD16O,2.000000X1.905000*%
G04 #@! TD*
G04 #@! TA.AperFunction,ComponentPad*
%ADD17RoundRect,0.250000X1.000000X1.000000X-1.000000X1.000000X-1.000000X-1.000000X1.000000X-1.000000X0*%
G04 #@! TD*
G04 #@! TA.AperFunction,ComponentPad*
%ADD18C,2.500000*%
G04 #@! TD*
G04 #@! TA.AperFunction,ViaPad*
%ADD19C,1.600000*%
G04 #@! TD*
G04 #@! TA.AperFunction,Conductor*
%ADD20C,0.300000*%
G04 #@! TD*
G04 #@! TA.AperFunction,Profile*
%ADD21C,0.050000*%
G04 #@! TD*
G04 APERTURE END LIST*
D10*
X102980000Y-67017500D03*
X102980000Y-68742500D03*
D11*
X88000000Y-61000000D03*
D12*
X88000000Y-58460000D03*
D13*
X128207500Y-40667500D03*
D14*
X128207500Y-42667500D03*
X128207500Y-44667500D03*
X128207500Y-46667500D03*
D15*
X136000000Y-64080000D03*
D16*
X136000000Y-61540000D03*
X136000000Y-59000000D03*
D13*
X97500000Y-78500000D03*
D14*
X95500000Y-78500000D03*
X93500000Y-78500000D03*
X91500000Y-78500000D03*
D11*
X128115000Y-51725000D03*
D12*
X128115000Y-54265000D03*
D11*
X88000000Y-54580000D03*
D12*
X88000000Y-52040000D03*
X88000000Y-49500000D03*
X88000000Y-46960000D03*
X88000000Y-44420000D03*
X88000000Y-41880000D03*
X88000000Y-39340000D03*
D17*
X131500000Y-79832500D03*
D18*
X126500000Y-79832500D03*
D11*
X133000000Y-43540000D03*
D12*
X133000000Y-41000000D03*
D19*
X105800000Y-64930000D03*
X97410000Y-41140000D03*
X100420000Y-44950000D03*
X89430000Y-65150000D03*
X97520000Y-81530000D03*
X99140000Y-56220000D03*
X92230000Y-73030000D03*
X135840000Y-73160000D03*
X85060000Y-55750000D03*
X101450000Y-41230000D03*
X111300000Y-59390000D03*
X104180000Y-59740000D03*
X131270000Y-57320000D03*
X130320000Y-62010000D03*
X123750000Y-55190000D03*
X135270000Y-48760000D03*
D20*
X100420000Y-44950000D02*
X100420000Y-42590000D01*
X100420000Y-42590000D02*
X98970000Y-41140000D01*
X98970000Y-41140000D02*
X97410000Y-41140000D01*
X89430000Y-80170000D02*
X90940000Y-81680000D01*
X89430000Y-65150000D02*
X89430000Y-80170000D01*
X90940000Y-81680000D02*
X97370000Y-81680000D01*
X97370000Y-81680000D02*
X97520000Y-81530000D01*
X104180000Y-59740000D02*
X104180000Y-53940000D01*
X103580000Y-53340000D02*
X102040000Y-53340000D01*
X104180000Y-53940000D02*
X103580000Y-53340000D01*
X102040000Y-53340000D02*
X99160000Y-56220000D01*
X99160000Y-56220000D02*
X99140000Y-56220000D01*
X101450000Y-43790000D02*
X101450000Y-41230000D01*
X97302233Y-56290000D02*
X98622233Y-54970000D01*
X102070000Y-44410000D02*
X101450000Y-43790000D01*
X85600000Y-56290000D02*
X97302233Y-56290000D01*
X98770000Y-54970000D02*
X102070000Y-51670000D01*
X85060000Y-55750000D02*
X85600000Y-56290000D01*
X102070000Y-51670000D02*
X102070000Y-44410000D01*
X98622233Y-54970000D02*
X98770000Y-54970000D01*
X92410000Y-73210000D02*
X92230000Y-73030000D01*
X135790000Y-73210000D02*
X92410000Y-73210000D01*
X135840000Y-73160000D02*
X135790000Y-73210000D01*
X102980000Y-67017500D02*
X102980000Y-65140000D01*
X102980000Y-65140000D02*
X102060000Y-64220000D01*
X102060000Y-64220000D02*
X102060000Y-60710000D01*
X102060000Y-60710000D02*
X103030000Y-59740000D01*
X103030000Y-59740000D02*
X104180000Y-59740000D01*
X127700000Y-59390000D02*
X111300000Y-59390000D01*
X131270000Y-57320000D02*
X131270000Y-61060000D01*
X131270000Y-61060000D02*
X130320000Y-62010000D01*
X134670000Y-49360000D02*
X135270000Y-48760000D01*
X127360000Y-49360000D02*
X134670000Y-49360000D01*
X123750000Y-55190000D02*
X123750000Y-52970000D01*
X123750000Y-52970000D02*
X127360000Y-49360000D01*
X130320000Y-62010000D02*
X127700000Y-59390000D01*
X104160000Y-59720000D02*
X104180000Y-59740000D01*
X111300000Y-59390000D02*
X104160000Y-59390000D01*
X104160000Y-59390000D02*
X104160000Y-59720000D01*
G04 #@! TA.AperFunction,Conductor*
G36*
X87231462Y-38020185D02*
G01*
X87277217Y-38072989D01*
X87287161Y-38142147D01*
X87258136Y-38205703D01*
X87237310Y-38224816D01*
X87187790Y-38260795D01*
X87120207Y-38309896D01*
X86969890Y-38460213D01*
X86844951Y-38632179D01*
X86748444Y-38821585D01*
X86682753Y-39023760D01*
X86649500Y-39233713D01*
X86649500Y-39446286D01*
X86671072Y-39582490D01*
X86682754Y-39656243D01*
X86721695Y-39776092D01*
X86748444Y-39858414D01*
X86844951Y-40047820D01*
X86969890Y-40219786D01*
X87120213Y-40370109D01*
X87292179Y-40495048D01*
X87292181Y-40495049D01*
X87292184Y-40495051D01*
X87301493Y-40499794D01*
X87352290Y-40547766D01*
X87369087Y-40615587D01*
X87346552Y-40681722D01*
X87301505Y-40720760D01*
X87292446Y-40725376D01*
X87292440Y-40725380D01*
X87238282Y-40764727D01*
X87238282Y-40764728D01*
X87870591Y-41397037D01*
X87807007Y-41414075D01*
X87692993Y-41479901D01*
X87599901Y-41572993D01*
X87534075Y-41687007D01*
X87517037Y-41750591D01*
X86884728Y-41118282D01*
X86884727Y-41118282D01*
X86845380Y-41172439D01*
X86748904Y-41361782D01*
X86683242Y-41563869D01*
X86683242Y-41563872D01*
X86650000Y-41773753D01*
X86650000Y-41986246D01*
X86683242Y-42196127D01*
X86683242Y-42196130D01*
X86748904Y-42398217D01*
X86845375Y-42587550D01*
X86884728Y-42641716D01*
X87517037Y-42009408D01*
X87534075Y-42072993D01*
X87599901Y-42187007D01*
X87692993Y-42280099D01*
X87807007Y-42345925D01*
X87870590Y-42362962D01*
X87238282Y-42995269D01*
X87238282Y-42995270D01*
X87292452Y-43034626D01*
X87292451Y-43034626D01*
X87301495Y-43039234D01*
X87352292Y-43087208D01*
X87369087Y-43155029D01*
X87346550Y-43221164D01*
X87301499Y-43260202D01*
X87292182Y-43264949D01*
X87120213Y-43389890D01*
X86969890Y-43540213D01*
X86844951Y-43712179D01*
X86748444Y-43901585D01*
X86748443Y-43901587D01*
X86748443Y-43901588D01*
X86717984Y-43995330D01*
X86682753Y-44103760D01*
X86649500Y-44313713D01*
X86649500Y-44526287D01*
X86682754Y-44736243D01*
X86732875Y-44890500D01*
X86748444Y-44938414D01*
X86844951Y-45127820D01*
X86969890Y-45299786D01*
X87120213Y-45450109D01*
X87292182Y-45575050D01*
X87300946Y-45579516D01*
X87351742Y-45627491D01*
X87368536Y-45695312D01*
X87345998Y-45761447D01*
X87300946Y-45800484D01*
X87292182Y-45804949D01*
X87120213Y-45929890D01*
X86969890Y-46080213D01*
X86844951Y-46252179D01*
X86748444Y-46441585D01*
X86682753Y-46643760D01*
X86649500Y-46853713D01*
X86649500Y-47066286D01*
X86682753Y-47276239D01*
X86748444Y-47478414D01*
X86844951Y-47667820D01*
X86969890Y-47839786D01*
X87120213Y-47990109D01*
X87292182Y-48115050D01*
X87300946Y-48119516D01*
X87351742Y-48167491D01*
X87368536Y-48235312D01*
X87345998Y-48301447D01*
X87300946Y-48340484D01*
X87292182Y-48344949D01*
X87120213Y-48469890D01*
X86969890Y-48620213D01*
X86844951Y-48792179D01*
X86748444Y-48981585D01*
X86682753Y-49183760D01*
X86670802Y-49259219D01*
X86649500Y-49393713D01*
X86649500Y-49606287D01*
X86682754Y-49816243D01*
X86745872Y-50010500D01*
X86748444Y-50018414D01*
X86844951Y-50207820D01*
X86969890Y-50379786D01*
X87120213Y-50530109D01*
X87292182Y-50655050D01*
X87300946Y-50659516D01*
X87351742Y-50707491D01*
X87368536Y-50775312D01*
X87345998Y-50841447D01*
X87300946Y-50880484D01*
X87292182Y-50884949D01*
X87120213Y-51009890D01*
X86969890Y-51160213D01*
X86844951Y-51332179D01*
X86748444Y-51521585D01*
X86682753Y-51723760D01*
X86649500Y-51933713D01*
X86649500Y-52146286D01*
X86671072Y-52282490D01*
X86682754Y-52356243D01*
X86747441Y-52555329D01*
X86748444Y-52558414D01*
X86844951Y-52747820D01*
X86969890Y-52919786D01*
X87083430Y-53033326D01*
X87116915Y-53094649D01*
X87111931Y-53164341D01*
X87070059Y-53220274D01*
X87039083Y-53237189D01*
X86907669Y-53286203D01*
X86907664Y-53286206D01*
X86792455Y-53372452D01*
X86792452Y-53372455D01*
X86706206Y-53487664D01*
X86706202Y-53487671D01*
X86655908Y-53622517D01*
X86649501Y-53682116D01*
X86649501Y-53682123D01*
X86649500Y-53682135D01*
X86649500Y-55477870D01*
X86649501Y-55477876D01*
X86652121Y-55502247D01*
X86649341Y-55517652D01*
X86651569Y-55533147D01*
X86643263Y-55551332D01*
X86639714Y-55571006D01*
X86629047Y-55582462D01*
X86622544Y-55596703D01*
X86605725Y-55607511D01*
X86592103Y-55622143D01*
X86576147Y-55626519D01*
X86563766Y-55634477D01*
X86528831Y-55639500D01*
X86465115Y-55639500D01*
X86398076Y-55619815D01*
X86352321Y-55567011D01*
X86342642Y-55534898D01*
X86328477Y-55445465D01*
X86265218Y-55250776D01*
X86231503Y-55184607D01*
X86172287Y-55068390D01*
X86164556Y-55057749D01*
X86051971Y-54902786D01*
X85907213Y-54758028D01*
X85741613Y-54637715D01*
X85741612Y-54637714D01*
X85741610Y-54637713D01*
X85630782Y-54581243D01*
X85559223Y-54544781D01*
X85364534Y-54481522D01*
X85189995Y-54453878D01*
X85162352Y-54449500D01*
X84957648Y-54449500D01*
X84933329Y-54453351D01*
X84755465Y-54481522D01*
X84560776Y-54544781D01*
X84378386Y-54637715D01*
X84212786Y-54758028D01*
X84068028Y-54902786D01*
X83947715Y-55068386D01*
X83854781Y-55250776D01*
X83791522Y-55445465D01*
X83759500Y-55647648D01*
X83759500Y-55852351D01*
X83791522Y-56054534D01*
X83854781Y-56249223D01*
X83892043Y-56322352D01*
X83929171Y-56395220D01*
X83947715Y-56431613D01*
X84068028Y-56597213D01*
X84212786Y-56741971D01*
X84321261Y-56820781D01*
X84378390Y-56862287D01*
X84455566Y-56901610D01*
X84560776Y-56955218D01*
X84560778Y-56955218D01*
X84560781Y-56955220D01*
X84665137Y-56989127D01*
X84755465Y-57018477D01*
X84856557Y-57034488D01*
X84957648Y-57050500D01*
X84957649Y-57050500D01*
X85162351Y-57050500D01*
X85162352Y-57050500D01*
X85364534Y-57018477D01*
X85364537Y-57018476D01*
X85364538Y-57018476D01*
X85425980Y-56998511D01*
X85559219Y-56955220D01*
X85561582Y-56954015D01*
X85562876Y-56953705D01*
X85563717Y-56953357D01*
X85563772Y-56953490D01*
X85617878Y-56940500D01*
X87523327Y-56940500D01*
X87590366Y-56960185D01*
X87636121Y-57012989D01*
X87646065Y-57082147D01*
X87617040Y-57145703D01*
X87561645Y-57182430D01*
X87481588Y-57208443D01*
X87481585Y-57208444D01*
X87292179Y-57304951D01*
X87120213Y-57429890D01*
X86969890Y-57580213D01*
X86844951Y-57752179D01*
X86748444Y-57941585D01*
X86682753Y-58143760D01*
X86649500Y-58353713D01*
X86649500Y-58566286D01*
X86680893Y-58764497D01*
X86682754Y-58776243D01*
X86731930Y-58927591D01*
X86748444Y-58978414D01*
X86844951Y-59167820D01*
X86969890Y-59339786D01*
X87083818Y-59453714D01*
X87117303Y-59515037D01*
X87112319Y-59584729D01*
X87070447Y-59640662D01*
X87039471Y-59657577D01*
X86907912Y-59706646D01*
X86907906Y-59706649D01*
X86792812Y-59792809D01*
X86792809Y-59792812D01*
X86706649Y-59907906D01*
X86706645Y-59907913D01*
X86656403Y-60042620D01*
X86656401Y-60042627D01*
X86650000Y-60102155D01*
X86650000Y-60750000D01*
X87566988Y-60750000D01*
X87534075Y-60807007D01*
X87500000Y-60934174D01*
X87500000Y-61065826D01*
X87534075Y-61192993D01*
X87566988Y-61250000D01*
X86650000Y-61250000D01*
X86650000Y-61897844D01*
X86656401Y-61957372D01*
X86656403Y-61957379D01*
X86706645Y-62092086D01*
X86706649Y-62092093D01*
X86792809Y-62207187D01*
X86792812Y-62207190D01*
X86907906Y-62293350D01*
X86907913Y-62293354D01*
X87042620Y-62343596D01*
X87042627Y-62343598D01*
X87102155Y-62349999D01*
X87102172Y-62350000D01*
X87750000Y-62350000D01*
X87750000Y-61433012D01*
X87807007Y-61465925D01*
X87934174Y-61500000D01*
X88065826Y-61500000D01*
X88192993Y-61465925D01*
X88250000Y-61433012D01*
X88250000Y-62350000D01*
X88897828Y-62350000D01*
X88897844Y-62349999D01*
X88957372Y-62343598D01*
X88957379Y-62343596D01*
X89092086Y-62293354D01*
X89092093Y-62293350D01*
X89207187Y-62207190D01*
X89207190Y-62207187D01*
X89293350Y-62092093D01*
X89293354Y-62092086D01*
X89343596Y-61957379D01*
X89343598Y-61957372D01*
X89349999Y-61897844D01*
X89350000Y-61897827D01*
X89350000Y-61250000D01*
X88433012Y-61250000D01*
X88465925Y-61192993D01*
X88500000Y-61065826D01*
X88500000Y-60934174D01*
X88465925Y-60807007D01*
X88433012Y-60750000D01*
X89350000Y-60750000D01*
X89350000Y-60102172D01*
X89349999Y-60102155D01*
X89343598Y-60042627D01*
X89343596Y-60042620D01*
X89293354Y-59907913D01*
X89293350Y-59907906D01*
X89207190Y-59792812D01*
X89207187Y-59792809D01*
X89092093Y-59706649D01*
X89092088Y-59706646D01*
X88960528Y-59657577D01*
X88904595Y-59615705D01*
X88880178Y-59550241D01*
X88895030Y-59481968D01*
X88916175Y-59453720D01*
X89030104Y-59339792D01*
X89155051Y-59167816D01*
X89251557Y-58978412D01*
X89317246Y-58776243D01*
X89350500Y-58566287D01*
X89350500Y-58353713D01*
X89317246Y-58143757D01*
X89251557Y-57941588D01*
X89155051Y-57752184D01*
X89155049Y-57752181D01*
X89155048Y-57752179D01*
X89030109Y-57580213D01*
X88879786Y-57429890D01*
X88707820Y-57304951D01*
X88518414Y-57208444D01*
X88518413Y-57208443D01*
X88518412Y-57208443D01*
X88438354Y-57182430D01*
X88380679Y-57142993D01*
X88353481Y-57078635D01*
X88365396Y-57009788D01*
X88412640Y-56958313D01*
X88476673Y-56940500D01*
X97366304Y-56940500D01*
X97450848Y-56923682D01*
X97491977Y-56915501D01*
X97610360Y-56866465D01*
X97623355Y-56857782D01*
X97716902Y-56795277D01*
X97771432Y-56740746D01*
X97777212Y-56736197D01*
X97803086Y-56725824D01*
X97827549Y-56712467D01*
X97835068Y-56713004D01*
X97842065Y-56710200D01*
X97869436Y-56715462D01*
X97897240Y-56717451D01*
X97903274Y-56721968D01*
X97910678Y-56723392D01*
X97930862Y-56742619D01*
X97953174Y-56759322D01*
X97960143Y-56770513D01*
X97961267Y-56771584D01*
X97961559Y-56772788D01*
X97964393Y-56777338D01*
X97980091Y-56808148D01*
X98009806Y-56866466D01*
X98027715Y-56901613D01*
X98148028Y-57067213D01*
X98292786Y-57211971D01*
X98420762Y-57304949D01*
X98458390Y-57332287D01*
X98574607Y-57391503D01*
X98640776Y-57425218D01*
X98640778Y-57425218D01*
X98640781Y-57425220D01*
X98745137Y-57459127D01*
X98835465Y-57488477D01*
X98936557Y-57504488D01*
X99037648Y-57520500D01*
X99037649Y-57520500D01*
X99242351Y-57520500D01*
X99242352Y-57520500D01*
X99444534Y-57488477D01*
X99639219Y-57425220D01*
X99821610Y-57332287D01*
X99914590Y-57264732D01*
X99987213Y-57211971D01*
X99987215Y-57211968D01*
X99987219Y-57211966D01*
X100131966Y-57067219D01*
X100131968Y-57067215D01*
X100131971Y-57067213D01*
X100213337Y-56955220D01*
X100252287Y-56901610D01*
X100345220Y-56719219D01*
X100408477Y-56524534D01*
X100440500Y-56322352D01*
X100440500Y-56117648D01*
X100415079Y-55957150D01*
X100424033Y-55887859D01*
X100449868Y-55850076D01*
X102273127Y-54026819D01*
X102334450Y-53993334D01*
X102360808Y-53990500D01*
X103259192Y-53990500D01*
X103288632Y-53999144D01*
X103318619Y-54005668D01*
X103323634Y-54009422D01*
X103326231Y-54010185D01*
X103346868Y-54026814D01*
X103493182Y-54173127D01*
X103526666Y-54234448D01*
X103529500Y-54260807D01*
X103529500Y-58541928D01*
X103509815Y-58608967D01*
X103478385Y-58642246D01*
X103332787Y-58748028D01*
X103332782Y-58748032D01*
X103188034Y-58892780D01*
X103162743Y-58927591D01*
X103082246Y-59038386D01*
X103026918Y-59081051D01*
X102981929Y-59089500D01*
X102965929Y-59089500D01*
X102840261Y-59114497D01*
X102840255Y-59114499D01*
X102721875Y-59163533D01*
X102721866Y-59163538D01*
X102615331Y-59234723D01*
X102615327Y-59234726D01*
X101554727Y-60295325D01*
X101554721Y-60295332D01*
X101499631Y-60377781D01*
X101499632Y-60377782D01*
X101483534Y-60401874D01*
X101434499Y-60520255D01*
X101434497Y-60520261D01*
X101409500Y-60645928D01*
X101409500Y-60645931D01*
X101409500Y-64284069D01*
X101409500Y-64284071D01*
X101409499Y-64284071D01*
X101434497Y-64409738D01*
X101434499Y-64409744D01*
X101483534Y-64528125D01*
X101554726Y-64634673D01*
X101554727Y-64634674D01*
X102293181Y-65373127D01*
X102326666Y-65434450D01*
X102329500Y-65460808D01*
X102329500Y-66036792D01*
X102309815Y-66103831D01*
X102286619Y-66129415D01*
X102286757Y-66129553D01*
X102283941Y-66132368D01*
X102282407Y-66134061D01*
X102281652Y-66134657D01*
X102159659Y-66256651D01*
X102069093Y-66403481D01*
X102069092Y-66403484D01*
X102014826Y-66567247D01*
X102014826Y-66567248D01*
X102014825Y-66567248D01*
X102004500Y-66668315D01*
X102004500Y-67366669D01*
X102004501Y-67366687D01*
X102014825Y-67467752D01*
X102051109Y-67577249D01*
X102069092Y-67631516D01*
X102159659Y-67778349D01*
X102159661Y-67778351D01*
X102173982Y-67792672D01*
X102207467Y-67853995D01*
X102202483Y-67923687D01*
X102173985Y-67968032D01*
X102160052Y-67981965D01*
X102069551Y-68128688D01*
X102069546Y-68128699D01*
X102015319Y-68292347D01*
X102005000Y-68393345D01*
X102005000Y-68492500D01*
X103954999Y-68492500D01*
X103954999Y-68393360D01*
X103954998Y-68393345D01*
X103944680Y-68292347D01*
X103890453Y-68128699D01*
X103890448Y-68128688D01*
X103799947Y-67981965D01*
X103799944Y-67981961D01*
X103786017Y-67968034D01*
X103752532Y-67906711D01*
X103757516Y-67837019D01*
X103786017Y-67792672D01*
X103800340Y-67778350D01*
X103890908Y-67631516D01*
X103945174Y-67467753D01*
X103955500Y-67366677D01*
X103955499Y-66668324D01*
X103945174Y-66567247D01*
X103890908Y-66403484D01*
X103800340Y-66256650D01*
X103678350Y-66134660D01*
X103678349Y-66134659D01*
X103678347Y-66134657D01*
X103677593Y-66134061D01*
X103677209Y-66133519D01*
X103673243Y-66129553D01*
X103673920Y-66128875D01*
X103637214Y-66077041D01*
X103630500Y-66036792D01*
X103630500Y-65075928D01*
X103605502Y-64950261D01*
X103605501Y-64950260D01*
X103605501Y-64950256D01*
X103556465Y-64831873D01*
X103491958Y-64735331D01*
X103485276Y-64725330D01*
X102746819Y-63986873D01*
X102713334Y-63925550D01*
X102710500Y-63899192D01*
X102710500Y-61030807D01*
X102730185Y-60963768D01*
X102746819Y-60943126D01*
X103057699Y-60632246D01*
X103119022Y-60598761D01*
X103188714Y-60603745D01*
X103233061Y-60632246D01*
X103332786Y-60731971D01*
X103487749Y-60844556D01*
X103498390Y-60852287D01*
X103614607Y-60911503D01*
X103680776Y-60945218D01*
X103680778Y-60945218D01*
X103680781Y-60945220D01*
X103737866Y-60963768D01*
X103875465Y-61008477D01*
X103976557Y-61024488D01*
X104077648Y-61040500D01*
X104077649Y-61040500D01*
X104282351Y-61040500D01*
X104282352Y-61040500D01*
X104484534Y-61008477D01*
X104679219Y-60945220D01*
X104861610Y-60852287D01*
X104999215Y-60752312D01*
X105027213Y-60731971D01*
X105027215Y-60731968D01*
X105027219Y-60731966D01*
X105171966Y-60587219D01*
X105171968Y-60587215D01*
X105171971Y-60587213D01*
X105235334Y-60500000D01*
X105292287Y-60421610D01*
X105385220Y-60239219D01*
X105421948Y-60126182D01*
X105461386Y-60068506D01*
X105525744Y-60041308D01*
X105539879Y-60040500D01*
X110101929Y-60040500D01*
X110168968Y-60060185D01*
X110202245Y-60091613D01*
X110276236Y-60193452D01*
X110308034Y-60237219D01*
X110452786Y-60381971D01*
X110607749Y-60494556D01*
X110618390Y-60502287D01*
X110688106Y-60537809D01*
X110800776Y-60595218D01*
X110800778Y-60595218D01*
X110800781Y-60595220D01*
X110905137Y-60629127D01*
X110995465Y-60658477D01*
X111021358Y-60662578D01*
X111197648Y-60690500D01*
X111197649Y-60690500D01*
X111402351Y-60690500D01*
X111402352Y-60690500D01*
X111604534Y-60658477D01*
X111799219Y-60595220D01*
X111981610Y-60502287D01*
X112119818Y-60401874D01*
X112147213Y-60381971D01*
X112147215Y-60381968D01*
X112147219Y-60381966D01*
X112291966Y-60237219D01*
X112397753Y-60091613D01*
X112453082Y-60048949D01*
X112498071Y-60040500D01*
X127379192Y-60040500D01*
X127446231Y-60060185D01*
X127466873Y-60076819D01*
X129012862Y-61622808D01*
X129046347Y-61684131D01*
X129047654Y-61729886D01*
X129019500Y-61907647D01*
X129019500Y-62112351D01*
X129051522Y-62314534D01*
X129114781Y-62509223D01*
X129174793Y-62627001D01*
X129203684Y-62683703D01*
X129207715Y-62691613D01*
X129328028Y-62857213D01*
X129472786Y-63001971D01*
X129627749Y-63114556D01*
X129638390Y-63122287D01*
X129754607Y-63181503D01*
X129820776Y-63215218D01*
X129820778Y-63215218D01*
X129820781Y-63215220D01*
X129925137Y-63249127D01*
X130015465Y-63278477D01*
X130116557Y-63294488D01*
X130217648Y-63310500D01*
X130217649Y-63310500D01*
X130422351Y-63310500D01*
X130422352Y-63310500D01*
X130624534Y-63278477D01*
X130819219Y-63215220D01*
X131001610Y-63122287D01*
X131142374Y-63020017D01*
X131167213Y-63001971D01*
X131167215Y-63001968D01*
X131167219Y-63001966D01*
X131311966Y-62857219D01*
X131311968Y-62857215D01*
X131311971Y-62857213D01*
X131375369Y-62769952D01*
X131432287Y-62691610D01*
X131525220Y-62509219D01*
X131588477Y-62314534D01*
X131620500Y-62112352D01*
X131620500Y-61907648D01*
X131592345Y-61729886D01*
X131601300Y-61660594D01*
X131627134Y-61622810D01*
X131775277Y-61474669D01*
X131808033Y-61425646D01*
X134499500Y-61425646D01*
X134499500Y-61654354D01*
X134511463Y-61729886D01*
X134535278Y-61880246D01*
X134535278Y-61880249D01*
X134605950Y-62097755D01*
X134605952Y-62097758D01*
X134709783Y-62301538D01*
X134842525Y-62484242D01*
X134866005Y-62550046D01*
X134850180Y-62618100D01*
X134800074Y-62666795D01*
X134785541Y-62673308D01*
X134757670Y-62683703D01*
X134757664Y-62683706D01*
X134642455Y-62769952D01*
X134642452Y-62769955D01*
X134556206Y-62885164D01*
X134556202Y-62885171D01*
X134505908Y-63020017D01*
X134499501Y-63079616D01*
X134499501Y-63079623D01*
X134499500Y-63079635D01*
X134499500Y-65080370D01*
X134499501Y-65080376D01*
X134505908Y-65139983D01*
X134556202Y-65274828D01*
X134556206Y-65274835D01*
X134642452Y-65390044D01*
X134642455Y-65390047D01*
X134757664Y-65476293D01*
X134757671Y-65476297D01*
X134892517Y-65526591D01*
X134892516Y-65526591D01*
X134899444Y-65527335D01*
X134952127Y-65533000D01*
X137047872Y-65532999D01*
X137107483Y-65526591D01*
X137242331Y-65476296D01*
X137357546Y-65390046D01*
X137443796Y-65274831D01*
X137494091Y-65139983D01*
X137500500Y-65080373D01*
X137500499Y-63079628D01*
X137494091Y-63020017D01*
X137487360Y-63001971D01*
X137443797Y-62885171D01*
X137443793Y-62885164D01*
X137357547Y-62769955D01*
X137357544Y-62769952D01*
X137242335Y-62683706D01*
X137242328Y-62683702D01*
X137214459Y-62673308D01*
X137158525Y-62631437D01*
X137134108Y-62565973D01*
X137148960Y-62497700D01*
X137157460Y-62484260D01*
X137290217Y-62301538D01*
X137394048Y-62097758D01*
X137439662Y-61957372D01*
X137464721Y-61880249D01*
X137464721Y-61880248D01*
X137464722Y-61880245D01*
X137500500Y-61654354D01*
X137500500Y-61425646D01*
X137464722Y-61199755D01*
X137464721Y-61199751D01*
X137464721Y-61199750D01*
X137394049Y-60982244D01*
X137369556Y-60934174D01*
X137290217Y-60778462D01*
X137155786Y-60593434D01*
X136994066Y-60431714D01*
X136909134Y-60370007D01*
X136866470Y-60314678D01*
X136860491Y-60245064D01*
X136893097Y-60183269D01*
X136909137Y-60169371D01*
X136993739Y-60107905D01*
X137155402Y-59946242D01*
X137289788Y-59761276D01*
X137393582Y-59557570D01*
X137464234Y-59340128D01*
X137478509Y-59250000D01*
X136490748Y-59250000D01*
X136512518Y-59212292D01*
X136550000Y-59072409D01*
X136550000Y-58927591D01*
X136512518Y-58787708D01*
X136490748Y-58750000D01*
X137478509Y-58750000D01*
X137464234Y-58659871D01*
X137393582Y-58442429D01*
X137289788Y-58238723D01*
X137155402Y-58053757D01*
X136993742Y-57892097D01*
X136808776Y-57757711D01*
X136605068Y-57653917D01*
X136387625Y-57583265D01*
X136387626Y-57583265D01*
X136250000Y-57561467D01*
X136250000Y-58509252D01*
X136212292Y-58487482D01*
X136072409Y-58450000D01*
X135927591Y-58450000D01*
X135787708Y-58487482D01*
X135750000Y-58509252D01*
X135750000Y-57561467D01*
X135612374Y-57583265D01*
X135394931Y-57653917D01*
X135191223Y-57757711D01*
X135006257Y-57892097D01*
X134844597Y-58053757D01*
X134710211Y-58238723D01*
X134606417Y-58442429D01*
X134535765Y-58659871D01*
X134521491Y-58750000D01*
X135509252Y-58750000D01*
X135487482Y-58787708D01*
X135450000Y-58927591D01*
X135450000Y-59072409D01*
X135487482Y-59212292D01*
X135509252Y-59250000D01*
X134521491Y-59250000D01*
X134535765Y-59340128D01*
X134606417Y-59557570D01*
X134710211Y-59761276D01*
X134844597Y-59946242D01*
X135006257Y-60107902D01*
X135006263Y-60107907D01*
X135090863Y-60169372D01*
X135133529Y-60224701D01*
X135139508Y-60294315D01*
X135106903Y-60356110D01*
X135090864Y-60370007D01*
X135005940Y-60431709D01*
X135005931Y-60431716D01*
X134844216Y-60593431D01*
X134844216Y-60593432D01*
X134844214Y-60593434D01*
X134806075Y-60645928D01*
X134709783Y-60778461D01*
X134605950Y-60982244D01*
X134535278Y-61199750D01*
X134535278Y-61199753D01*
X134527360Y-61249744D01*
X134499500Y-61425646D01*
X131808033Y-61425646D01*
X131846465Y-61368127D01*
X131895501Y-61249744D01*
X131902357Y-61215277D01*
X131920500Y-61124069D01*
X131920500Y-58518070D01*
X131940185Y-58451031D01*
X131971613Y-58417753D01*
X132117219Y-58311966D01*
X132261966Y-58167219D01*
X132261968Y-58167215D01*
X132261971Y-58167213D01*
X132344400Y-58053757D01*
X132382287Y-58001610D01*
X132475220Y-57819219D01*
X132538477Y-57624534D01*
X132570500Y-57422352D01*
X132570500Y-57217648D01*
X132553371Y-57109500D01*
X132538477Y-57015465D01*
X132490064Y-56866466D01*
X132475220Y-56820781D01*
X132475218Y-56820778D01*
X132475218Y-56820776D01*
X132426837Y-56725824D01*
X132382287Y-56638390D01*
X132352375Y-56597219D01*
X132261971Y-56472786D01*
X132117213Y-56328028D01*
X131951613Y-56207715D01*
X131951612Y-56207714D01*
X131951610Y-56207713D01*
X131894653Y-56178691D01*
X131769223Y-56114781D01*
X131574534Y-56051522D01*
X131399995Y-56023878D01*
X131372352Y-56019500D01*
X131167648Y-56019500D01*
X131143329Y-56023351D01*
X130965465Y-56051522D01*
X130770776Y-56114781D01*
X130588386Y-56207715D01*
X130422786Y-56328028D01*
X130278028Y-56472786D01*
X130157715Y-56638386D01*
X130064781Y-56820776D01*
X130001522Y-57015465D01*
X129969500Y-57217648D01*
X129969500Y-57422351D01*
X130001522Y-57624534D01*
X130064781Y-57819223D01*
X130157715Y-58001613D01*
X130278028Y-58167213D01*
X130422784Y-58311969D01*
X130480241Y-58353713D01*
X130568385Y-58417753D01*
X130611051Y-58473081D01*
X130619500Y-58518070D01*
X130619500Y-60595539D01*
X130599815Y-60662578D01*
X130547011Y-60708333D01*
X130477853Y-60718277D01*
X130476103Y-60718012D01*
X130422359Y-60709500D01*
X130422352Y-60709500D01*
X130217648Y-60709500D01*
X130039886Y-60737654D01*
X129970593Y-60728699D01*
X129932808Y-60702862D01*
X128114674Y-58884727D01*
X128114673Y-58884726D01*
X128114669Y-58884723D01*
X128008127Y-58813535D01*
X127945775Y-58787708D01*
X127889744Y-58764499D01*
X127889738Y-58764497D01*
X127764071Y-58739500D01*
X127764069Y-58739500D01*
X112498071Y-58739500D01*
X112431032Y-58719815D01*
X112397754Y-58688386D01*
X112291966Y-58542781D01*
X112147219Y-58398034D01*
X112147213Y-58398028D01*
X111981613Y-58277715D01*
X111981612Y-58277714D01*
X111981610Y-58277713D01*
X111905088Y-58238723D01*
X111799223Y-58184781D01*
X111604534Y-58121522D01*
X111429995Y-58093878D01*
X111402352Y-58089500D01*
X111197648Y-58089500D01*
X111173329Y-58093351D01*
X110995465Y-58121522D01*
X110800776Y-58184781D01*
X110618386Y-58277715D01*
X110452786Y-58398028D01*
X110308034Y-58542780D01*
X110290956Y-58566287D01*
X110202246Y-58688386D01*
X110146918Y-58731051D01*
X110101929Y-58739500D01*
X105055762Y-58739500D01*
X105035340Y-58733503D01*
X105014091Y-58732288D01*
X104992620Y-58720959D01*
X104988723Y-58719815D01*
X104982896Y-58715832D01*
X104923329Y-58672554D01*
X104881614Y-58642246D01*
X104838949Y-58586916D01*
X104830500Y-58541928D01*
X104830500Y-55087648D01*
X122449500Y-55087648D01*
X122449500Y-55292351D01*
X122481522Y-55494534D01*
X122544781Y-55689223D01*
X122608691Y-55814653D01*
X122626739Y-55850073D01*
X122637715Y-55871613D01*
X122758028Y-56037213D01*
X122902786Y-56181971D01*
X123057749Y-56294556D01*
X123068390Y-56302287D01*
X123184607Y-56361503D01*
X123250776Y-56395218D01*
X123250778Y-56395218D01*
X123250781Y-56395220D01*
X123355137Y-56429127D01*
X123445465Y-56458477D01*
X123535776Y-56472781D01*
X123647648Y-56490500D01*
X123647649Y-56490500D01*
X123852351Y-56490500D01*
X123852352Y-56490500D01*
X124054534Y-56458477D01*
X124249219Y-56395220D01*
X124431610Y-56302287D01*
X124524590Y-56234732D01*
X124597213Y-56181971D01*
X124597215Y-56181968D01*
X124597219Y-56181966D01*
X124741966Y-56037219D01*
X124741968Y-56037215D01*
X124741971Y-56037213D01*
X124830424Y-55915466D01*
X124862287Y-55871610D01*
X124955220Y-55689219D01*
X125018477Y-55494534D01*
X125050500Y-55292352D01*
X125050500Y-55087648D01*
X125021220Y-54902786D01*
X125018477Y-54885465D01*
X124955218Y-54690776D01*
X124921503Y-54624607D01*
X124862287Y-54508390D01*
X124842767Y-54481523D01*
X124741971Y-54342786D01*
X124597217Y-54198032D01*
X124597212Y-54198028D01*
X124451615Y-54092246D01*
X124408949Y-54036916D01*
X124400500Y-53991928D01*
X124400500Y-53290807D01*
X124420185Y-53223768D01*
X124436814Y-53203131D01*
X126552821Y-51087123D01*
X126614142Y-51053640D01*
X126683834Y-51058624D01*
X126739767Y-51100496D01*
X126764184Y-51165960D01*
X126764500Y-51174806D01*
X126764500Y-52622870D01*
X126764501Y-52622872D01*
X126770908Y-52682483D01*
X126821202Y-52817328D01*
X126821206Y-52817335D01*
X126907452Y-52932544D01*
X126907455Y-52932547D01*
X127022664Y-53018793D01*
X127022671Y-53018797D01*
X127154082Y-53067810D01*
X127210016Y-53109681D01*
X127234433Y-53175145D01*
X127219582Y-53243418D01*
X127198431Y-53271673D01*
X127084889Y-53385215D01*
X126959951Y-53557179D01*
X126863444Y-53746585D01*
X126797753Y-53948760D01*
X126764500Y-54158713D01*
X126764500Y-54371286D01*
X126786214Y-54508386D01*
X126797754Y-54581243D01*
X126855998Y-54760500D01*
X126863444Y-54783414D01*
X126959951Y-54972820D01*
X127084890Y-55144786D01*
X127235213Y-55295109D01*
X127407179Y-55420048D01*
X127407181Y-55420049D01*
X127407184Y-55420051D01*
X127596588Y-55516557D01*
X127798757Y-55582246D01*
X128008713Y-55615500D01*
X128008714Y-55615500D01*
X128221286Y-55615500D01*
X128221287Y-55615500D01*
X128431243Y-55582246D01*
X128633412Y-55516557D01*
X128822816Y-55420051D01*
X128844789Y-55404086D01*
X128994786Y-55295109D01*
X128994788Y-55295106D01*
X128994792Y-55295104D01*
X129145104Y-55144792D01*
X129145106Y-55144788D01*
X129145109Y-55144786D01*
X129270048Y-54972820D01*
X129270047Y-54972820D01*
X129270051Y-54972816D01*
X129366557Y-54783412D01*
X129432246Y-54581243D01*
X129465500Y-54371287D01*
X129465500Y-54158713D01*
X129432246Y-53948757D01*
X129366557Y-53746588D01*
X129270051Y-53557184D01*
X129270049Y-53557181D01*
X129270048Y-53557179D01*
X129145109Y-53385213D01*
X129031569Y-53271673D01*
X128998084Y-53210350D01*
X129003068Y-53140658D01*
X129044940Y-53084725D01*
X129075915Y-53067810D01*
X129207331Y-53018796D01*
X129322546Y-52932546D01*
X129408796Y-52817331D01*
X129459091Y-52682483D01*
X129465500Y-52622873D01*
X129465499Y-50827128D01*
X129459091Y-50767517D01*
X129458037Y-50764692D01*
X129408797Y-50632671D01*
X129408793Y-50632664D01*
X129322547Y-50517455D01*
X129322544Y-50517452D01*
X129207335Y-50431206D01*
X129207328Y-50431202D01*
X129072482Y-50380908D01*
X129072483Y-50380908D01*
X129012883Y-50374501D01*
X129012881Y-50374500D01*
X129012873Y-50374500D01*
X129012865Y-50374500D01*
X127564808Y-50374500D01*
X127543562Y-50368261D01*
X127521474Y-50366682D01*
X127510690Y-50358609D01*
X127497769Y-50354815D01*
X127483269Y-50338081D01*
X127465541Y-50324810D01*
X127460833Y-50312189D01*
X127452014Y-50302011D01*
X127448862Y-50280093D01*
X127441124Y-50259346D01*
X127443986Y-50246185D01*
X127442070Y-50232853D01*
X127451269Y-50212709D01*
X127455976Y-50191073D01*
X127469244Y-50173347D01*
X127471095Y-50169297D01*
X127477127Y-50162819D01*
X127593127Y-50046819D01*
X127654450Y-50013334D01*
X127680808Y-50010500D01*
X134734070Y-50010500D01*
X134793012Y-49998775D01*
X134811542Y-49995089D01*
X134874053Y-49998775D01*
X134965465Y-50028477D01*
X135066557Y-50044488D01*
X135167648Y-50060500D01*
X135167649Y-50060500D01*
X135372351Y-50060500D01*
X135372352Y-50060500D01*
X135574534Y-50028477D01*
X135769219Y-49965220D01*
X135951610Y-49872287D01*
X136044590Y-49804732D01*
X136117213Y-49751971D01*
X136117215Y-49751968D01*
X136117219Y-49751966D01*
X136261966Y-49607219D01*
X136261968Y-49607215D01*
X136261971Y-49607213D01*
X136314732Y-49534590D01*
X136382287Y-49441610D01*
X136475220Y-49259219D01*
X136538477Y-49064534D01*
X136570500Y-48862352D01*
X136570500Y-48657648D01*
X136538477Y-48455466D01*
X136475220Y-48260781D01*
X136475218Y-48260778D01*
X136475218Y-48260776D01*
X136427686Y-48167491D01*
X136382287Y-48078390D01*
X136318148Y-47990109D01*
X136261971Y-47912786D01*
X136117213Y-47768028D01*
X135951613Y-47647715D01*
X135951612Y-47647714D01*
X135951610Y-47647713D01*
X135894653Y-47618691D01*
X135769223Y-47554781D01*
X135574534Y-47491522D01*
X135399995Y-47463878D01*
X135372352Y-47459500D01*
X135167648Y-47459500D01*
X135143329Y-47463351D01*
X134965465Y-47491522D01*
X134770776Y-47554781D01*
X134588386Y-47647715D01*
X134422786Y-47768028D01*
X134278028Y-47912786D01*
X134157715Y-48078386D01*
X134064781Y-48260776D01*
X134001522Y-48455465D01*
X133977855Y-48604898D01*
X133947926Y-48668033D01*
X133888614Y-48704964D01*
X133855382Y-48709500D01*
X127295929Y-48709500D01*
X127170261Y-48734497D01*
X127170255Y-48734499D01*
X127051874Y-48783534D01*
X126945326Y-48854726D01*
X126945325Y-48854727D01*
X123244725Y-52555328D01*
X123244724Y-52555329D01*
X123199595Y-52622872D01*
X123199593Y-52622874D01*
X123173539Y-52661864D01*
X123173533Y-52661875D01*
X123124499Y-52780255D01*
X123124497Y-52780261D01*
X123099500Y-52905928D01*
X123099500Y-53991928D01*
X123079815Y-54058967D01*
X123048385Y-54092246D01*
X122902787Y-54198028D01*
X122902782Y-54198032D01*
X122758028Y-54342786D01*
X122637715Y-54508386D01*
X122544781Y-54690776D01*
X122481522Y-54885465D01*
X122449500Y-55087648D01*
X104830500Y-55087648D01*
X104830500Y-53875928D01*
X104805502Y-53750261D01*
X104805501Y-53750260D01*
X104805501Y-53750256D01*
X104756465Y-53631873D01*
X104756464Y-53631872D01*
X104756461Y-53631866D01*
X104685277Y-53525332D01*
X104647609Y-53487664D01*
X104594669Y-53434724D01*
X104446147Y-53286202D01*
X103994674Y-52834727D01*
X103994673Y-52834726D01*
X103994669Y-52834723D01*
X103888127Y-52763535D01*
X103769744Y-52714499D01*
X103769738Y-52714497D01*
X103644071Y-52689500D01*
X103644069Y-52689500D01*
X102269808Y-52689500D01*
X102202769Y-52669815D01*
X102157014Y-52617011D01*
X102147070Y-52547853D01*
X102176095Y-52484297D01*
X102182127Y-52477819D01*
X102575273Y-52084673D01*
X102575273Y-52084672D01*
X102575277Y-52084669D01*
X102646465Y-51978127D01*
X102695501Y-51859743D01*
X102708092Y-51796446D01*
X102720500Y-51734071D01*
X102720500Y-44345928D01*
X102695502Y-44220261D01*
X102695501Y-44220260D01*
X102695501Y-44220256D01*
X102646465Y-44101873D01*
X102587693Y-44013914D01*
X102575276Y-43995330D01*
X102136819Y-43556873D01*
X102103334Y-43495550D01*
X102100500Y-43469192D01*
X102100500Y-42568139D01*
X126945000Y-42568139D01*
X126945000Y-42766860D01*
X126976087Y-42963137D01*
X127037493Y-43152129D01*
X127037494Y-43152132D01*
X127094978Y-43264949D01*
X127127713Y-43329194D01*
X127244519Y-43489964D01*
X127244521Y-43489966D01*
X127334374Y-43579819D01*
X127367859Y-43641142D01*
X127362875Y-43710834D01*
X127334374Y-43755181D01*
X127244521Y-43845033D01*
X127127713Y-44005805D01*
X127037494Y-44182867D01*
X127037493Y-44182870D01*
X126976087Y-44371862D01*
X126963588Y-44450781D01*
X126945000Y-44568139D01*
X126945000Y-44766861D01*
X126955602Y-44833797D01*
X126976087Y-44963137D01*
X127037493Y-45152129D01*
X127037494Y-45152132D01*
X127112729Y-45299786D01*
X127127713Y-45329194D01*
X127244519Y-45489964D01*
X127244521Y-45489966D01*
X127334374Y-45579819D01*
X127367859Y-45641142D01*
X127362875Y-45710834D01*
X127334374Y-45755181D01*
X127244521Y-45845033D01*
X127127713Y-46005805D01*
X127037494Y-46182867D01*
X127037493Y-46182870D01*
X126976087Y-46371862D01*
X126945000Y-46568139D01*
X126945000Y-46766860D01*
X126976087Y-46963137D01*
X127037493Y-47152129D01*
X127037494Y-47152132D01*
X127100731Y-47276239D01*
X127127713Y-47329194D01*
X127244519Y-47489964D01*
X127385036Y-47630481D01*
X127545806Y-47747287D01*
X127632649Y-47791535D01*
X127722867Y-47837505D01*
X127722870Y-47837506D01*
X127817366Y-47868209D01*
X127911864Y-47898913D01*
X128108139Y-47930000D01*
X128108140Y-47930000D01*
X128306860Y-47930000D01*
X128306861Y-47930000D01*
X128503136Y-47898913D01*
X128692132Y-47837505D01*
X128869194Y-47747287D01*
X129029964Y-47630481D01*
X129170481Y-47489964D01*
X129287287Y-47329194D01*
X129377505Y-47152132D01*
X129438913Y-46963136D01*
X129470000Y-46766861D01*
X129470000Y-46568139D01*
X129438913Y-46371864D01*
X129377505Y-46182868D01*
X129377505Y-46182867D01*
X129322386Y-46074691D01*
X129287287Y-46005806D01*
X129170481Y-45845036D01*
X129080626Y-45755181D01*
X129047141Y-45693858D01*
X129052125Y-45624166D01*
X129080626Y-45579819D01*
X129085397Y-45575048D01*
X129170481Y-45489964D01*
X129287287Y-45329194D01*
X129377505Y-45152132D01*
X129438913Y-44963136D01*
X129470000Y-44766861D01*
X129470000Y-44568139D01*
X129438913Y-44371864D01*
X129377505Y-44182868D01*
X129377505Y-44182867D01*
X129331535Y-44092649D01*
X129287287Y-44005806D01*
X129170481Y-43845036D01*
X129080626Y-43755181D01*
X129047141Y-43693858D01*
X129052125Y-43624166D01*
X129080626Y-43579819D01*
X129120237Y-43540208D01*
X129170481Y-43489964D01*
X129287287Y-43329194D01*
X129377505Y-43152132D01*
X129438913Y-42963136D01*
X129470000Y-42766861D01*
X129470000Y-42642135D01*
X131649500Y-42642135D01*
X131649500Y-44437870D01*
X131649501Y-44437876D01*
X131655908Y-44497483D01*
X131706202Y-44632328D01*
X131706206Y-44632335D01*
X131792452Y-44747544D01*
X131792455Y-44747547D01*
X131907664Y-44833793D01*
X131907671Y-44833797D01*
X132042517Y-44884091D01*
X132042516Y-44884091D01*
X132049444Y-44884835D01*
X132102127Y-44890500D01*
X133897872Y-44890499D01*
X133957483Y-44884091D01*
X134092331Y-44833796D01*
X134207546Y-44747546D01*
X134293796Y-44632331D01*
X134344091Y-44497483D01*
X134350500Y-44437873D01*
X134350499Y-42642128D01*
X134345299Y-42593757D01*
X134344091Y-42582516D01*
X134293797Y-42447671D01*
X134293793Y-42447664D01*
X134207547Y-42332455D01*
X134207544Y-42332452D01*
X134092335Y-42246206D01*
X134092328Y-42246202D01*
X133957482Y-42195908D01*
X133957483Y-42195908D01*
X133897883Y-42189501D01*
X133897881Y-42189500D01*
X133897873Y-42189500D01*
X133897865Y-42189500D01*
X133887309Y-42189500D01*
X133820270Y-42169815D01*
X133799628Y-42153181D01*
X133129408Y-41482962D01*
X133192993Y-41465925D01*
X133307007Y-41400099D01*
X133400099Y-41307007D01*
X133465925Y-41192993D01*
X133482962Y-41129408D01*
X134115270Y-41761717D01*
X134115270Y-41761716D01*
X134154622Y-41707554D01*
X134251095Y-41518217D01*
X134316757Y-41316130D01*
X134316757Y-41316127D01*
X134350000Y-41106246D01*
X134350000Y-40893753D01*
X134316757Y-40683872D01*
X134316757Y-40683869D01*
X134251095Y-40481782D01*
X134154624Y-40292449D01*
X134115270Y-40238282D01*
X134115269Y-40238282D01*
X133482962Y-40870590D01*
X133465925Y-40807007D01*
X133400099Y-40692993D01*
X133307007Y-40599901D01*
X133192993Y-40534075D01*
X133129409Y-40517037D01*
X133761716Y-39884728D01*
X133707550Y-39845375D01*
X133518217Y-39748904D01*
X133316129Y-39683242D01*
X133106246Y-39650000D01*
X132893754Y-39650000D01*
X132683872Y-39683242D01*
X132683869Y-39683242D01*
X132481782Y-39748904D01*
X132292439Y-39845380D01*
X132238282Y-39884727D01*
X132238282Y-39884728D01*
X132870591Y-40517037D01*
X132807007Y-40534075D01*
X132692993Y-40599901D01*
X132599901Y-40692993D01*
X132534075Y-40807007D01*
X132517037Y-40870591D01*
X131884728Y-40238282D01*
X131884727Y-40238282D01*
X131845380Y-40292439D01*
X131748904Y-40481782D01*
X131683242Y-40683869D01*
X131683242Y-40683872D01*
X131650000Y-40893753D01*
X131650000Y-41106246D01*
X131683242Y-41316127D01*
X131683242Y-41316130D01*
X131748904Y-41518217D01*
X131845375Y-41707550D01*
X131884728Y-41761716D01*
X132517037Y-41129408D01*
X132534075Y-41192993D01*
X132599901Y-41307007D01*
X132692993Y-41400099D01*
X132807007Y-41465925D01*
X132870590Y-41482962D01*
X132200370Y-42153181D01*
X132139047Y-42186666D01*
X132112698Y-42189500D01*
X132102134Y-42189500D01*
X132102123Y-42189501D01*
X132042516Y-42195908D01*
X131907671Y-42246202D01*
X131907664Y-42246206D01*
X131792455Y-42332452D01*
X131792452Y-42332455D01*
X131706206Y-42447664D01*
X131706202Y-42447671D01*
X131655908Y-42582517D01*
X131655367Y-42587554D01*
X131649501Y-42642123D01*
X131649500Y-42642135D01*
X129470000Y-42642135D01*
X129470000Y-42568139D01*
X129438913Y-42371864D01*
X129408209Y-42277366D01*
X129377506Y-42182870D01*
X129377505Y-42182867D01*
X129315155Y-42060500D01*
X129287287Y-42005806D01*
X129287285Y-42005803D01*
X129287284Y-42005801D01*
X129269905Y-41981881D01*
X129246424Y-41916075D01*
X129262249Y-41848021D01*
X129295912Y-41809727D01*
X129326691Y-41786685D01*
X129412850Y-41671593D01*
X129412854Y-41671586D01*
X129463096Y-41536879D01*
X129463098Y-41536872D01*
X129469499Y-41477344D01*
X129469500Y-41477327D01*
X129469500Y-40917500D01*
X128496316Y-40917500D01*
X128512376Y-40901440D01*
X128562536Y-40814561D01*
X128588500Y-40717660D01*
X128588500Y-40617340D01*
X128562536Y-40520439D01*
X128512376Y-40433560D01*
X128496316Y-40417500D01*
X129469500Y-40417500D01*
X129469500Y-39857672D01*
X129469499Y-39857655D01*
X129463098Y-39798127D01*
X129463096Y-39798120D01*
X129412854Y-39663413D01*
X129412850Y-39663406D01*
X129326690Y-39548312D01*
X129326687Y-39548309D01*
X129211593Y-39462149D01*
X129211586Y-39462145D01*
X129076879Y-39411903D01*
X129076872Y-39411901D01*
X129017344Y-39405500D01*
X128457500Y-39405500D01*
X128457500Y-40378684D01*
X128441440Y-40362624D01*
X128354561Y-40312464D01*
X128257660Y-40286500D01*
X128157340Y-40286500D01*
X128060439Y-40312464D01*
X127973560Y-40362624D01*
X127957500Y-40378684D01*
X127957500Y-39405500D01*
X127397655Y-39405500D01*
X127338127Y-39411901D01*
X127338120Y-39411903D01*
X127203413Y-39462145D01*
X127203406Y-39462149D01*
X127088312Y-39548309D01*
X127088309Y-39548312D01*
X127002149Y-39663406D01*
X127002145Y-39663413D01*
X126951903Y-39798120D01*
X126951901Y-39798127D01*
X126945500Y-39857655D01*
X126945500Y-40417500D01*
X127918684Y-40417500D01*
X127902624Y-40433560D01*
X127852464Y-40520439D01*
X127826500Y-40617340D01*
X127826500Y-40717660D01*
X127852464Y-40814561D01*
X127902624Y-40901440D01*
X127918684Y-40917500D01*
X126945500Y-40917500D01*
X126945500Y-41477344D01*
X126951901Y-41536872D01*
X126951903Y-41536879D01*
X127002145Y-41671586D01*
X127002149Y-41671593D01*
X127088309Y-41786686D01*
X127119088Y-41809728D01*
X127160959Y-41865662D01*
X127165943Y-41935354D01*
X127145096Y-41981879D01*
X127127714Y-42005803D01*
X127037494Y-42182867D01*
X127037493Y-42182870D01*
X126976087Y-42371862D01*
X126945000Y-42568139D01*
X102100500Y-42568139D01*
X102100500Y-42428070D01*
X102120185Y-42361031D01*
X102151613Y-42327753D01*
X102297219Y-42221966D01*
X102441966Y-42077219D01*
X102441968Y-42077215D01*
X102441971Y-42077213D01*
X102508061Y-41986246D01*
X102562287Y-41911610D01*
X102655220Y-41729219D01*
X102718477Y-41534534D01*
X102750500Y-41332352D01*
X102750500Y-41127648D01*
X102718477Y-40925466D01*
X102713896Y-40911368D01*
X102685283Y-40823305D01*
X102655220Y-40730781D01*
X102655218Y-40730778D01*
X102655218Y-40730776D01*
X102612249Y-40646446D01*
X102562287Y-40548390D01*
X102551887Y-40534075D01*
X102441971Y-40382786D01*
X102297213Y-40238028D01*
X102131613Y-40117715D01*
X102131612Y-40117714D01*
X102131610Y-40117713D01*
X102074653Y-40088691D01*
X101949223Y-40024781D01*
X101787647Y-39972282D01*
X101754534Y-39961522D01*
X101579995Y-39933878D01*
X101552352Y-39929500D01*
X101347648Y-39929500D01*
X101323329Y-39933351D01*
X101145465Y-39961522D01*
X100950776Y-40024781D01*
X100768386Y-40117715D01*
X100602786Y-40238028D01*
X100458028Y-40382786D01*
X100337715Y-40548386D01*
X100244781Y-40730776D01*
X100181522Y-40925465D01*
X100150393Y-41122009D01*
X100120464Y-41185144D01*
X100061152Y-41222075D01*
X99991290Y-41221077D01*
X99940239Y-41190292D01*
X99384673Y-40634726D01*
X99358653Y-40617340D01*
X99278127Y-40563535D01*
X99240057Y-40547766D01*
X99159744Y-40514499D01*
X99159738Y-40514497D01*
X99034071Y-40489500D01*
X99034069Y-40489500D01*
X98608071Y-40489500D01*
X98541032Y-40469815D01*
X98507754Y-40438386D01*
X98401966Y-40292781D01*
X98257219Y-40148034D01*
X98257213Y-40148028D01*
X98091613Y-40027715D01*
X98091612Y-40027714D01*
X98091610Y-40027713D01*
X98034653Y-39998691D01*
X97909223Y-39934781D01*
X97714534Y-39871522D01*
X97539995Y-39843878D01*
X97512352Y-39839500D01*
X97307648Y-39839500D01*
X97283329Y-39843351D01*
X97105465Y-39871522D01*
X96910776Y-39934781D01*
X96728386Y-40027715D01*
X96562786Y-40148028D01*
X96418028Y-40292786D01*
X96297715Y-40458386D01*
X96204781Y-40640776D01*
X96141522Y-40835465D01*
X96109500Y-41037648D01*
X96109500Y-41242351D01*
X96141522Y-41444534D01*
X96204781Y-41639223D01*
X96238051Y-41704517D01*
X96293924Y-41814174D01*
X96297715Y-41821613D01*
X96418028Y-41987213D01*
X96562786Y-42131971D01*
X96702606Y-42233554D01*
X96728390Y-42252287D01*
X96844607Y-42311503D01*
X96910776Y-42345218D01*
X96910778Y-42345218D01*
X96910781Y-42345220D01*
X96992777Y-42371862D01*
X97105465Y-42408477D01*
X97206557Y-42424488D01*
X97307648Y-42440500D01*
X97307649Y-42440500D01*
X97512351Y-42440500D01*
X97512352Y-42440500D01*
X97714534Y-42408477D01*
X97909219Y-42345220D01*
X98091610Y-42252287D01*
X98228019Y-42153181D01*
X98257213Y-42131971D01*
X98257215Y-42131968D01*
X98257219Y-42131966D01*
X98401966Y-41987219D01*
X98507753Y-41841613D01*
X98512085Y-41838273D01*
X98514358Y-41833297D01*
X98539454Y-41817168D01*
X98563082Y-41798949D01*
X98569755Y-41797695D01*
X98573136Y-41795523D01*
X98608071Y-41790500D01*
X98649192Y-41790500D01*
X98716231Y-41810185D01*
X98736873Y-41826819D01*
X99733181Y-42823127D01*
X99766666Y-42884450D01*
X99769500Y-42910808D01*
X99769500Y-43751928D01*
X99749815Y-43818967D01*
X99718385Y-43852246D01*
X99572787Y-43958028D01*
X99572782Y-43958032D01*
X99428028Y-44102786D01*
X99307715Y-44268386D01*
X99214781Y-44450776D01*
X99151522Y-44645465D01*
X99119500Y-44847648D01*
X99119500Y-45052351D01*
X99151522Y-45254534D01*
X99214781Y-45449223D01*
X99278691Y-45574653D01*
X99305614Y-45627491D01*
X99307715Y-45631613D01*
X99428028Y-45797213D01*
X99572786Y-45941971D01*
X99675816Y-46016825D01*
X99738390Y-46062287D01*
X99854607Y-46121503D01*
X99920776Y-46155218D01*
X99920778Y-46155218D01*
X99920781Y-46155220D01*
X100005870Y-46182867D01*
X100115465Y-46218477D01*
X100216557Y-46234488D01*
X100317648Y-46250500D01*
X100317649Y-46250500D01*
X100522351Y-46250500D01*
X100522352Y-46250500D01*
X100724534Y-46218477D01*
X100919219Y-46155220D01*
X101101610Y-46062287D01*
X101179350Y-46005806D01*
X101222615Y-45974373D01*
X101288421Y-45950893D01*
X101356475Y-45966719D01*
X101405170Y-46016825D01*
X101419500Y-46074691D01*
X101419500Y-51349191D01*
X101399815Y-51416230D01*
X101383181Y-51436872D01*
X98512845Y-54307207D01*
X98496254Y-54316266D01*
X98482649Y-54329397D01*
X98453135Y-54339810D01*
X98451522Y-54340692D01*
X98449366Y-54341141D01*
X98441135Y-54342779D01*
X98441130Y-54342780D01*
X98441126Y-54342781D01*
X98435340Y-54343931D01*
X98432488Y-54344499D01*
X98314107Y-54393534D01*
X98207559Y-54464726D01*
X98207558Y-54464727D01*
X97069106Y-55603181D01*
X97007783Y-55636666D01*
X96981425Y-55639500D01*
X89471169Y-55639500D01*
X89404130Y-55619815D01*
X89358375Y-55567011D01*
X89347879Y-55502247D01*
X89350500Y-55477873D01*
X89350499Y-53682128D01*
X89344091Y-53622517D01*
X89319723Y-53557184D01*
X89293797Y-53487671D01*
X89293793Y-53487664D01*
X89207547Y-53372455D01*
X89207544Y-53372452D01*
X89092335Y-53286206D01*
X89092328Y-53286202D01*
X88960917Y-53237189D01*
X88904983Y-53195318D01*
X88880566Y-53129853D01*
X88895418Y-53061580D01*
X88916563Y-53033332D01*
X89030104Y-52919792D01*
X89155051Y-52747816D01*
X89251557Y-52558412D01*
X89317246Y-52356243D01*
X89350500Y-52146287D01*
X89350500Y-51933713D01*
X89317246Y-51723757D01*
X89251557Y-51521588D01*
X89155051Y-51332184D01*
X89155049Y-51332181D01*
X89155048Y-51332179D01*
X89030109Y-51160213D01*
X88879786Y-51009890D01*
X88707820Y-50884951D01*
X88707115Y-50884591D01*
X88699054Y-50880485D01*
X88648259Y-50832512D01*
X88631463Y-50764692D01*
X88653999Y-50698556D01*
X88699054Y-50659515D01*
X88707816Y-50655051D01*
X88738629Y-50632664D01*
X88879786Y-50530109D01*
X88879788Y-50530106D01*
X88879792Y-50530104D01*
X89030104Y-50379792D01*
X89030106Y-50379788D01*
X89030109Y-50379786D01*
X89155048Y-50207820D01*
X89155047Y-50207820D01*
X89155051Y-50207816D01*
X89251557Y-50018412D01*
X89317246Y-49816243D01*
X89350500Y-49606287D01*
X89350500Y-49393713D01*
X89317246Y-49183757D01*
X89251557Y-48981588D01*
X89155051Y-48792184D01*
X89155049Y-48792181D01*
X89155048Y-48792179D01*
X89030109Y-48620213D01*
X88879786Y-48469890D01*
X88707820Y-48344951D01*
X88707115Y-48344591D01*
X88699054Y-48340485D01*
X88648259Y-48292512D01*
X88631463Y-48224692D01*
X88653999Y-48158556D01*
X88699054Y-48119515D01*
X88707816Y-48115051D01*
X88758276Y-48078390D01*
X88879786Y-47990109D01*
X88879788Y-47990106D01*
X88879792Y-47990104D01*
X89030104Y-47839792D01*
X89030106Y-47839788D01*
X89030109Y-47839786D01*
X89155048Y-47667820D01*
X89155047Y-47667820D01*
X89155051Y-47667816D01*
X89251557Y-47478412D01*
X89317246Y-47276243D01*
X89350500Y-47066287D01*
X89350500Y-46853713D01*
X89317246Y-46643757D01*
X89251557Y-46441588D01*
X89155051Y-46252184D01*
X89155049Y-46252181D01*
X89155048Y-46252179D01*
X89030109Y-46080213D01*
X88879786Y-45929890D01*
X88707820Y-45804951D01*
X88707115Y-45804591D01*
X88699054Y-45800485D01*
X88648259Y-45752512D01*
X88631463Y-45684692D01*
X88653999Y-45618556D01*
X88699054Y-45579515D01*
X88707816Y-45575051D01*
X88729789Y-45559086D01*
X88879786Y-45450109D01*
X88879788Y-45450106D01*
X88879792Y-45450104D01*
X89030104Y-45299792D01*
X89030106Y-45299788D01*
X89030109Y-45299786D01*
X89155048Y-45127820D01*
X89155047Y-45127820D01*
X89155051Y-45127816D01*
X89251557Y-44938412D01*
X89317246Y-44736243D01*
X89350500Y-44526287D01*
X89350500Y-44313713D01*
X89317246Y-44103757D01*
X89251557Y-43901588D01*
X89155051Y-43712184D01*
X89155049Y-43712181D01*
X89155048Y-43712179D01*
X89030109Y-43540213D01*
X88879786Y-43389890D01*
X88707817Y-43264949D01*
X88698504Y-43260204D01*
X88647707Y-43212230D01*
X88630912Y-43144409D01*
X88653449Y-43078274D01*
X88698507Y-43039232D01*
X88707555Y-43034622D01*
X88761716Y-42995270D01*
X88761717Y-42995270D01*
X88129408Y-42362962D01*
X88192993Y-42345925D01*
X88307007Y-42280099D01*
X88400099Y-42187007D01*
X88465925Y-42072993D01*
X88482962Y-42009408D01*
X89115270Y-42641717D01*
X89115270Y-42641716D01*
X89154622Y-42587554D01*
X89251095Y-42398217D01*
X89316757Y-42196130D01*
X89316757Y-42196127D01*
X89350000Y-41986246D01*
X89350000Y-41773753D01*
X89316757Y-41563872D01*
X89316757Y-41563869D01*
X89251095Y-41361782D01*
X89154624Y-41172449D01*
X89115270Y-41118282D01*
X89115269Y-41118282D01*
X88482962Y-41750590D01*
X88465925Y-41687007D01*
X88400099Y-41572993D01*
X88307007Y-41479901D01*
X88192993Y-41414075D01*
X88129409Y-41397037D01*
X88761716Y-40764728D01*
X88707547Y-40725373D01*
X88707547Y-40725372D01*
X88698500Y-40720763D01*
X88647706Y-40672788D01*
X88630912Y-40604966D01*
X88653451Y-40538832D01*
X88698508Y-40499793D01*
X88707816Y-40495051D01*
X88862337Y-40382786D01*
X88879786Y-40370109D01*
X88879788Y-40370106D01*
X88879792Y-40370104D01*
X89030104Y-40219792D01*
X89030106Y-40219788D01*
X89030109Y-40219786D01*
X89155048Y-40047820D01*
X89155047Y-40047820D01*
X89155051Y-40047816D01*
X89251557Y-39858412D01*
X89317246Y-39656243D01*
X89350500Y-39446287D01*
X89350500Y-39233713D01*
X89317246Y-39023757D01*
X89251557Y-38821588D01*
X89155051Y-38632184D01*
X89155049Y-38632181D01*
X89155048Y-38632179D01*
X89030109Y-38460213D01*
X88879792Y-38309896D01*
X88762691Y-38224817D01*
X88720026Y-38169489D01*
X88714047Y-38099876D01*
X88746652Y-38038080D01*
X88807491Y-38003723D01*
X88835577Y-38000500D01*
X134934108Y-38000500D01*
X134996949Y-38000500D01*
X135003032Y-38000648D01*
X135336929Y-38017052D01*
X135349037Y-38018245D01*
X135452146Y-38033539D01*
X135676699Y-38066849D01*
X135688617Y-38069219D01*
X136009951Y-38149709D01*
X136021588Y-38153240D01*
X136067001Y-38169489D01*
X136333467Y-38264832D01*
X136344688Y-38269479D01*
X136644163Y-38411120D01*
X136654871Y-38416844D01*
X136938988Y-38587137D01*
X136949106Y-38593897D01*
X137215170Y-38791224D01*
X137224576Y-38798944D01*
X137470013Y-39021395D01*
X137478604Y-39029986D01*
X137663251Y-39233713D01*
X137701055Y-39275423D01*
X137708775Y-39284829D01*
X137906102Y-39550893D01*
X137912862Y-39561011D01*
X138054979Y-39798120D01*
X138083148Y-39845116D01*
X138088883Y-39855844D01*
X138138865Y-39961523D01*
X138230514Y-40155297D01*
X138235170Y-40166540D01*
X138346759Y-40478411D01*
X138350292Y-40490055D01*
X138430777Y-40811369D01*
X138433151Y-40823305D01*
X138481754Y-41150962D01*
X138482947Y-41163071D01*
X138499351Y-41496966D01*
X138499500Y-41503051D01*
X138499500Y-80496948D01*
X138499351Y-80503033D01*
X138482947Y-80836928D01*
X138481754Y-80849037D01*
X138433151Y-81176694D01*
X138430777Y-81188630D01*
X138350292Y-81509944D01*
X138346759Y-81521588D01*
X138235170Y-81833459D01*
X138230514Y-81844702D01*
X138088885Y-82144151D01*
X138083148Y-82154883D01*
X137912862Y-82438988D01*
X137906102Y-82449106D01*
X137708775Y-82715170D01*
X137701055Y-82724576D01*
X137478611Y-82970006D01*
X137470006Y-82978611D01*
X137224576Y-83201055D01*
X137215170Y-83208775D01*
X136949106Y-83406102D01*
X136938988Y-83412862D01*
X136654883Y-83583148D01*
X136644151Y-83588885D01*
X136344702Y-83730514D01*
X136333459Y-83735170D01*
X136021588Y-83846759D01*
X136009944Y-83850292D01*
X135688630Y-83930777D01*
X135676694Y-83933151D01*
X135349037Y-83981754D01*
X135336928Y-83982947D01*
X135021989Y-83998419D01*
X135003031Y-83999351D01*
X134996949Y-83999500D01*
X72003051Y-83999500D01*
X71996968Y-83999351D01*
X71976900Y-83998365D01*
X71663071Y-83982947D01*
X71650962Y-83981754D01*
X71323305Y-83933151D01*
X71311369Y-83930777D01*
X70990055Y-83850292D01*
X70978411Y-83846759D01*
X70666540Y-83735170D01*
X70655301Y-83730515D01*
X70355844Y-83588883D01*
X70345121Y-83583150D01*
X70061011Y-83412862D01*
X70050893Y-83406102D01*
X69784829Y-83208775D01*
X69775423Y-83201055D01*
X69736475Y-83165755D01*
X69529986Y-82978604D01*
X69521395Y-82970013D01*
X69298944Y-82724576D01*
X69291224Y-82715170D01*
X69093897Y-82449106D01*
X69087137Y-82438988D01*
X69050114Y-82377219D01*
X68916844Y-82154871D01*
X68911120Y-82144163D01*
X68769479Y-81844688D01*
X68764829Y-81833459D01*
X68702364Y-81658882D01*
X68692872Y-81632351D01*
X68653240Y-81521588D01*
X68649707Y-81509944D01*
X68645628Y-81493658D01*
X68569219Y-81188617D01*
X68566848Y-81176694D01*
X68563160Y-81151834D01*
X68518245Y-80849037D01*
X68517052Y-80836927D01*
X68514885Y-80792826D01*
X68504660Y-80584669D01*
X68500649Y-80503032D01*
X68500500Y-80496948D01*
X68500500Y-80401576D01*
X69749500Y-80401576D01*
X69749500Y-80598422D01*
X69780290Y-80792826D01*
X69841117Y-80980029D01*
X69930476Y-81155405D01*
X70046172Y-81314646D01*
X70185354Y-81453828D01*
X70344595Y-81569524D01*
X70427455Y-81611743D01*
X70519970Y-81658882D01*
X70519972Y-81658882D01*
X70519975Y-81658884D01*
X70620317Y-81691487D01*
X70707173Y-81719709D01*
X70901578Y-81750500D01*
X70901583Y-81750500D01*
X71098422Y-81750500D01*
X71292826Y-81719709D01*
X71480025Y-81658884D01*
X71655405Y-81569524D01*
X71814646Y-81453828D01*
X71953828Y-81314646D01*
X72069524Y-81155405D01*
X72158884Y-80980025D01*
X72219709Y-80792826D01*
X72234966Y-80696496D01*
X72250500Y-80598422D01*
X72250500Y-80401576D01*
X80749500Y-80401576D01*
X80749500Y-80598422D01*
X80780290Y-80792826D01*
X80841117Y-80980029D01*
X80930476Y-81155405D01*
X81046172Y-81314646D01*
X81185354Y-81453828D01*
X81344595Y-81569524D01*
X81427455Y-81611743D01*
X81519970Y-81658882D01*
X81519972Y-81658882D01*
X81519975Y-81658884D01*
X81620317Y-81691487D01*
X81707173Y-81719709D01*
X81901578Y-81750500D01*
X81901583Y-81750500D01*
X82098422Y-81750500D01*
X82292826Y-81719709D01*
X82480025Y-81658884D01*
X82655405Y-81569524D01*
X82814646Y-81453828D01*
X82953828Y-81314646D01*
X83069524Y-81155405D01*
X83158884Y-80980025D01*
X83219709Y-80792826D01*
X83234966Y-80696496D01*
X83250500Y-80598422D01*
X83250500Y-80401576D01*
X83250499Y-80401569D01*
X83219709Y-80207173D01*
X83158882Y-80019970D01*
X83069523Y-79844594D01*
X82953828Y-79685354D01*
X82814646Y-79546172D01*
X82655405Y-79430476D01*
X82480029Y-79341117D01*
X82292826Y-79280290D01*
X82098422Y-79249500D01*
X82098417Y-79249500D01*
X81901583Y-79249500D01*
X81901578Y-79249500D01*
X81707173Y-79280290D01*
X81519970Y-79341117D01*
X81344594Y-79430476D01*
X81265488Y-79487951D01*
X81185354Y-79546172D01*
X81185352Y-79546174D01*
X81185351Y-79546174D01*
X81046174Y-79685351D01*
X81046174Y-79685352D01*
X81046172Y-79685354D01*
X81022629Y-79717758D01*
X80930476Y-79844594D01*
X80841117Y-80019970D01*
X80780290Y-80207173D01*
X80749501Y-80401569D01*
X80749500Y-80401576D01*
X72250500Y-80401576D01*
X72250499Y-80401569D01*
X72219709Y-80207173D01*
X72158882Y-80019970D01*
X72069523Y-79844594D01*
X71953828Y-79685354D01*
X71814646Y-79546172D01*
X71655405Y-79430476D01*
X71480029Y-79341117D01*
X71292826Y-79280290D01*
X71098422Y-79249500D01*
X71098417Y-79249500D01*
X70901583Y-79249500D01*
X70901578Y-79249500D01*
X70707173Y-79280290D01*
X70519970Y-79341117D01*
X70344594Y-79430476D01*
X70265488Y-79487951D01*
X70185354Y-79546172D01*
X70185352Y-79546174D01*
X70185351Y-79546174D01*
X70046174Y-79685351D01*
X70046174Y-79685352D01*
X70046172Y-79685354D01*
X70022629Y-79717758D01*
X69930476Y-79844594D01*
X69841117Y-80019970D01*
X69780290Y-80207173D01*
X69749501Y-80401569D01*
X69749500Y-80401576D01*
X68500500Y-80401576D01*
X68500500Y-65047648D01*
X88129500Y-65047648D01*
X88129500Y-65252351D01*
X88161522Y-65454534D01*
X88224781Y-65649223D01*
X88317715Y-65831613D01*
X88438028Y-65997213D01*
X88582784Y-66141969D01*
X88651863Y-66192157D01*
X88728385Y-66247753D01*
X88771051Y-66303081D01*
X88779500Y-66348070D01*
X88779500Y-80234071D01*
X88797544Y-80324780D01*
X88797544Y-80324781D01*
X88804497Y-80359736D01*
X88804499Y-80359744D01*
X88821823Y-80401569D01*
X88853535Y-80478127D01*
X88893559Y-80538028D01*
X88924726Y-80584673D01*
X90525324Y-82185271D01*
X90525331Y-82185277D01*
X90631871Y-82256464D01*
X90631870Y-82256464D01*
X90666544Y-82270826D01*
X90750256Y-82305501D01*
X90750260Y-82305501D01*
X90750261Y-82305502D01*
X90875928Y-82330500D01*
X90875931Y-82330500D01*
X96430967Y-82330500D01*
X96498006Y-82350185D01*
X96525252Y-82373962D01*
X96528035Y-82377220D01*
X96672786Y-82521971D01*
X96827749Y-82634556D01*
X96838390Y-82642287D01*
X96954607Y-82701503D01*
X97020776Y-82735218D01*
X97020778Y-82735218D01*
X97020781Y-82735220D01*
X97125137Y-82769127D01*
X97215465Y-82798477D01*
X97316557Y-82814488D01*
X97417648Y-82830500D01*
X97417649Y-82830500D01*
X97622351Y-82830500D01*
X97622352Y-82830500D01*
X97824534Y-82798477D01*
X98019219Y-82735220D01*
X98201610Y-82642287D01*
X98294590Y-82574732D01*
X98367213Y-82521971D01*
X98367215Y-82521968D01*
X98367219Y-82521966D01*
X98511966Y-82377219D01*
X98511968Y-82377215D01*
X98511971Y-82377213D01*
X98599699Y-82256464D01*
X98632287Y-82211610D01*
X98725220Y-82029219D01*
X98788477Y-81834534D01*
X98820500Y-81632352D01*
X98820500Y-81427648D01*
X98802602Y-81314646D01*
X98788477Y-81225465D01*
X98725218Y-81030776D01*
X98690070Y-80961795D01*
X98632287Y-80848390D01*
X98591918Y-80792826D01*
X98511971Y-80682786D01*
X98367213Y-80538028D01*
X98201613Y-80417715D01*
X98201612Y-80417714D01*
X98201610Y-80417713D01*
X98144653Y-80388691D01*
X98019223Y-80324781D01*
X97824534Y-80261522D01*
X97649995Y-80233878D01*
X97622352Y-80229500D01*
X97417648Y-80229500D01*
X97393329Y-80233351D01*
X97215465Y-80261522D01*
X97020776Y-80324781D01*
X96838386Y-80417715D01*
X96672786Y-80538028D01*
X96528028Y-80682786D01*
X96407715Y-80848386D01*
X96349930Y-80961795D01*
X96301955Y-81012591D01*
X96239445Y-81029500D01*
X91260808Y-81029500D01*
X91193769Y-81009815D01*
X91173127Y-80993181D01*
X90116819Y-79936873D01*
X90083334Y-79875550D01*
X90080500Y-79849192D01*
X90080500Y-78998052D01*
X90100185Y-78931013D01*
X90152989Y-78885258D01*
X90222147Y-78875314D01*
X90285703Y-78904339D01*
X90322431Y-78959734D01*
X90330457Y-78984437D01*
X90420641Y-79161432D01*
X90447730Y-79198715D01*
X91119000Y-78527445D01*
X91119000Y-78550160D01*
X91144964Y-78647061D01*
X91195124Y-78733940D01*
X91266060Y-78804876D01*
X91352939Y-78855036D01*
X91449840Y-78881000D01*
X91472553Y-78881000D01*
X90801283Y-79552268D01*
X90801283Y-79552269D01*
X90838567Y-79579358D01*
X91015562Y-79669542D01*
X91204477Y-79730924D01*
X91400679Y-79762000D01*
X91599321Y-79762000D01*
X91795520Y-79730924D01*
X91795523Y-79730924D01*
X91984437Y-79669542D01*
X92161425Y-79579362D01*
X92198716Y-79552268D01*
X91527448Y-78881000D01*
X91550160Y-78881000D01*
X91647061Y-78855036D01*
X91733940Y-78804876D01*
X91804876Y-78733940D01*
X91855036Y-78647061D01*
X91881000Y-78550160D01*
X91881000Y-78527447D01*
X92307597Y-78954044D01*
X92330401Y-78985430D01*
X92366676Y-79056623D01*
X92420213Y-79161694D01*
X92537019Y-79322464D01*
X92677536Y-79462981D01*
X92838306Y-79579787D01*
X92855805Y-79588703D01*
X93015367Y-79670005D01*
X93015370Y-79670006D01*
X93109866Y-79700709D01*
X93204364Y-79731413D01*
X93400639Y-79762500D01*
X93400640Y-79762500D01*
X93599360Y-79762500D01*
X93599361Y-79762500D01*
X93795636Y-79731413D01*
X93984632Y-79670005D01*
X94161694Y-79579787D01*
X94322464Y-79462981D01*
X94412319Y-79373126D01*
X94473642Y-79339641D01*
X94543334Y-79344625D01*
X94587681Y-79373126D01*
X94677536Y-79462981D01*
X94838306Y-79579787D01*
X94855805Y-79588703D01*
X95015367Y-79670005D01*
X95015370Y-79670006D01*
X95109866Y-79700709D01*
X95204364Y-79731413D01*
X95400639Y-79762500D01*
X95400640Y-79762500D01*
X95599360Y-79762500D01*
X95599361Y-79762500D01*
X95795636Y-79731413D01*
X95984632Y-79670005D01*
X96161694Y-79579787D01*
X96185216Y-79562696D01*
X96251016Y-79539217D01*
X96319070Y-79555040D01*
X96357365Y-79588703D01*
X96380455Y-79619547D01*
X96495664Y-79705793D01*
X96495671Y-79705797D01*
X96630517Y-79756091D01*
X96630516Y-79756091D01*
X96637444Y-79756835D01*
X96690127Y-79762500D01*
X98309872Y-79762499D01*
X98369483Y-79756091D01*
X98472259Y-79717758D01*
X124749500Y-79717758D01*
X124749500Y-79947241D01*
X124774446Y-80136715D01*
X124779452Y-80174738D01*
X124829022Y-80359736D01*
X124838842Y-80396387D01*
X124926650Y-80608376D01*
X124926657Y-80608390D01*
X125041392Y-80807117D01*
X125181081Y-80989161D01*
X125181089Y-80989170D01*
X125343330Y-81151411D01*
X125343338Y-81151418D01*
X125343339Y-81151419D01*
X125348534Y-81155405D01*
X125525382Y-81291107D01*
X125525385Y-81291108D01*
X125525388Y-81291111D01*
X125724112Y-81405844D01*
X125724117Y-81405846D01*
X125724123Y-81405849D01*
X125770865Y-81425210D01*
X125936113Y-81493658D01*
X126157762Y-81553048D01*
X126374312Y-81581557D01*
X126385250Y-81582998D01*
X126385266Y-81583000D01*
X126385273Y-81583000D01*
X126614727Y-81583000D01*
X126614734Y-81583000D01*
X126842238Y-81553048D01*
X127063887Y-81493658D01*
X127275888Y-81405844D01*
X127474612Y-81291111D01*
X127656661Y-81151419D01*
X127656665Y-81151414D01*
X127656670Y-81151411D01*
X127818911Y-80989170D01*
X127818914Y-80989165D01*
X127818919Y-80989161D01*
X127958611Y-80807112D01*
X128073344Y-80608388D01*
X128161158Y-80396387D01*
X128220548Y-80174738D01*
X128250500Y-79947234D01*
X128250500Y-79717766D01*
X128220548Y-79490262D01*
X128161158Y-79268613D01*
X128073344Y-79056612D01*
X127958611Y-78857888D01*
X127958608Y-78857885D01*
X127958607Y-78857882D01*
X127956258Y-78854821D01*
X127900751Y-78782483D01*
X129749500Y-78782483D01*
X129749500Y-80882501D01*
X129749501Y-80882518D01*
X129760000Y-80985296D01*
X129760001Y-80985299D01*
X129815185Y-81151831D01*
X129815187Y-81151836D01*
X129830520Y-81176694D01*
X129907288Y-81301156D01*
X130031344Y-81425212D01*
X130180666Y-81517314D01*
X130347203Y-81572499D01*
X130449991Y-81583000D01*
X132550008Y-81582999D01*
X132652797Y-81572499D01*
X132819334Y-81517314D01*
X132968656Y-81425212D01*
X133092712Y-81301156D01*
X133184814Y-81151834D01*
X133239999Y-80985297D01*
X133250500Y-80882509D01*
X133250499Y-78782492D01*
X133239999Y-78679703D01*
X133184814Y-78513166D01*
X133092712Y-78363844D01*
X132968656Y-78239788D01*
X132819334Y-78147686D01*
X132652797Y-78092501D01*
X132652795Y-78092500D01*
X132550010Y-78082000D01*
X130449998Y-78082000D01*
X130449981Y-78082001D01*
X130347203Y-78092500D01*
X130347200Y-78092501D01*
X130180668Y-78147685D01*
X130180663Y-78147687D01*
X130031342Y-78239789D01*
X129907289Y-78363842D01*
X129815187Y-78513163D01*
X129815185Y-78513168D01*
X129802927Y-78550160D01*
X129760001Y-78679703D01*
X129760001Y-78679704D01*
X129760000Y-78679704D01*
X129749500Y-78782483D01*
X127900751Y-78782483D01*
X127821884Y-78679703D01*
X127818919Y-78675839D01*
X127818918Y-78675838D01*
X127818911Y-78675830D01*
X127656670Y-78513589D01*
X127656661Y-78513581D01*
X127474617Y-78373892D01*
X127444349Y-78356417D01*
X127275888Y-78259156D01*
X127275876Y-78259150D01*
X127063887Y-78171342D01*
X126975604Y-78147687D01*
X126842238Y-78111952D01*
X126804215Y-78106946D01*
X126614741Y-78082000D01*
X126614734Y-78082000D01*
X126385266Y-78082000D01*
X126385258Y-78082000D01*
X126168715Y-78110509D01*
X126157762Y-78111952D01*
X126108547Y-78125139D01*
X125936112Y-78171342D01*
X125724123Y-78259150D01*
X125724109Y-78259157D01*
X125525382Y-78373892D01*
X125343338Y-78513581D01*
X125181081Y-78675838D01*
X125041392Y-78857882D01*
X124926657Y-79056609D01*
X124926650Y-79056623D01*
X124838842Y-79268612D01*
X124811814Y-79369483D01*
X124795472Y-79430476D01*
X124779453Y-79490259D01*
X124779451Y-79490270D01*
X124749500Y-79717758D01*
X98472259Y-79717758D01*
X98504331Y-79705796D01*
X98619546Y-79619546D01*
X98705796Y-79504331D01*
X98756091Y-79369483D01*
X98762500Y-79309873D01*
X98762499Y-78211420D01*
X105049499Y-78211420D01*
X105078340Y-78356407D01*
X105078343Y-78356417D01*
X105134912Y-78492988D01*
X105134919Y-78493001D01*
X105217048Y-78615915D01*
X105217051Y-78615919D01*
X105321580Y-78720448D01*
X105321584Y-78720451D01*
X105444498Y-78802580D01*
X105444511Y-78802587D01*
X105578006Y-78857882D01*
X105581087Y-78859158D01*
X105581091Y-78859158D01*
X105581092Y-78859159D01*
X105726079Y-78888000D01*
X105726082Y-78888000D01*
X105873920Y-78888000D01*
X105971462Y-78868596D01*
X106018913Y-78859158D01*
X106155495Y-78802584D01*
X106278416Y-78720451D01*
X106382951Y-78615916D01*
X106465084Y-78492995D01*
X106521658Y-78356413D01*
X106550500Y-78211420D01*
X113049499Y-78211420D01*
X113078340Y-78356407D01*
X113078343Y-78356417D01*
X113134912Y-78492988D01*
X113134919Y-78493001D01*
X113217048Y-78615915D01*
X113217051Y-78615919D01*
X113321580Y-78720448D01*
X113321584Y-78720451D01*
X113444498Y-78802580D01*
X113444511Y-78802587D01*
X113578006Y-78857882D01*
X113581087Y-78859158D01*
X113581091Y-78859158D01*
X113581092Y-78859159D01*
X113726079Y-78888000D01*
X113726082Y-78888000D01*
X113873920Y-78888000D01*
X113971462Y-78868596D01*
X114018913Y-78859158D01*
X114155495Y-78802584D01*
X114278416Y-78720451D01*
X114382951Y-78615916D01*
X114465084Y-78492995D01*
X114521658Y-78356413D01*
X114550500Y-78211418D01*
X114550500Y-78063582D01*
X114550500Y-78063579D01*
X114521659Y-77918592D01*
X114521658Y-77918591D01*
X114521658Y-77918587D01*
X114521656Y-77918582D01*
X114465087Y-77782011D01*
X114465080Y-77781998D01*
X114382951Y-77659084D01*
X114382948Y-77659080D01*
X114278419Y-77554551D01*
X114278415Y-77554548D01*
X114155501Y-77472419D01*
X114155488Y-77472412D01*
X114018917Y-77415843D01*
X114018907Y-77415840D01*
X113873920Y-77387000D01*
X113873918Y-77387000D01*
X113726082Y-77387000D01*
X113726080Y-77387000D01*
X113581092Y-77415840D01*
X113581082Y-77415843D01*
X113444511Y-77472412D01*
X113444498Y-77472419D01*
X113321584Y-77554548D01*
X113321580Y-77554551D01*
X113217051Y-77659080D01*
X113217048Y-77659084D01*
X113134919Y-77781998D01*
X113134912Y-77782011D01*
X113078343Y-77918582D01*
X113078340Y-77918592D01*
X113049500Y-78063579D01*
X113049500Y-78063582D01*
X113049500Y-78211418D01*
X113049500Y-78211420D01*
X113049499Y-78211420D01*
X106550500Y-78211420D01*
X106550500Y-78211418D01*
X106550500Y-78063582D01*
X106550500Y-78063579D01*
X106521659Y-77918592D01*
X106521658Y-77918591D01*
X106521658Y-77918587D01*
X106521656Y-77918582D01*
X106465087Y-77782011D01*
X106465080Y-77781998D01*
X106382951Y-77659084D01*
X106382948Y-77659080D01*
X106278419Y-77554551D01*
X106278415Y-77554548D01*
X106155501Y-77472419D01*
X106155488Y-77472412D01*
X106018917Y-77415843D01*
X106018907Y-77415840D01*
X105873920Y-77387000D01*
X105873918Y-77387000D01*
X105726082Y-77387000D01*
X105726080Y-77387000D01*
X105581092Y-77415840D01*
X105581082Y-77415843D01*
X105444511Y-77472412D01*
X105444498Y-77472419D01*
X105321584Y-77554548D01*
X105321580Y-77554551D01*
X105217051Y-77659080D01*
X105217048Y-77659084D01*
X105134919Y-77781998D01*
X105134912Y-77782011D01*
X105078343Y-77918582D01*
X105078340Y-77918592D01*
X105049500Y-78063579D01*
X105049500Y-78063582D01*
X105049500Y-78211418D01*
X105049500Y-78211420D01*
X105049499Y-78211420D01*
X98762499Y-78211420D01*
X98762499Y-77690128D01*
X98756091Y-77630517D01*
X98754732Y-77626874D01*
X98705797Y-77495671D01*
X98705793Y-77495664D01*
X98619547Y-77380455D01*
X98619544Y-77380452D01*
X98504335Y-77294206D01*
X98504328Y-77294202D01*
X98369482Y-77243908D01*
X98369483Y-77243908D01*
X98309883Y-77237501D01*
X98309881Y-77237500D01*
X98309873Y-77237500D01*
X98309864Y-77237500D01*
X96690129Y-77237500D01*
X96690123Y-77237501D01*
X96630516Y-77243908D01*
X96495671Y-77294202D01*
X96495664Y-77294206D01*
X96380455Y-77380452D01*
X96357366Y-77411295D01*
X96301431Y-77453166D01*
X96231739Y-77458149D01*
X96185215Y-77437302D01*
X96161693Y-77420212D01*
X95984632Y-77329994D01*
X95984629Y-77329993D01*
X95795637Y-77268587D01*
X95697498Y-77253043D01*
X95599361Y-77237500D01*
X95400639Y-77237500D01*
X95335214Y-77247862D01*
X95204362Y-77268587D01*
X95015370Y-77329993D01*
X95015367Y-77329994D01*
X94838305Y-77420213D01*
X94677533Y-77537021D01*
X94587681Y-77626874D01*
X94526358Y-77660359D01*
X94456666Y-77655375D01*
X94412319Y-77626874D01*
X94322466Y-77537021D01*
X94322464Y-77537019D01*
X94161694Y-77420213D01*
X94161692Y-77420212D01*
X93984632Y-77329994D01*
X93984629Y-77329993D01*
X93795637Y-77268587D01*
X93697498Y-77253043D01*
X93599361Y-77237500D01*
X93400639Y-77237500D01*
X93335214Y-77247862D01*
X93204362Y-77268587D01*
X93015370Y-77329993D01*
X93015367Y-77329994D01*
X92838305Y-77420213D01*
X92677533Y-77537021D01*
X92537021Y-77677533D01*
X92420213Y-77838305D01*
X92330404Y-78014565D01*
X92307600Y-78045951D01*
X91881000Y-78472551D01*
X91881000Y-78449840D01*
X91855036Y-78352939D01*
X91804876Y-78266060D01*
X91733940Y-78195124D01*
X91647061Y-78144964D01*
X91550160Y-78119000D01*
X91527447Y-78119000D01*
X92198716Y-77447731D01*
X92198715Y-77447730D01*
X92161432Y-77420641D01*
X91984437Y-77330457D01*
X91795522Y-77269075D01*
X91599321Y-77238000D01*
X91400679Y-77238000D01*
X91204479Y-77269075D01*
X91204476Y-77269075D01*
X91015562Y-77330457D01*
X90838564Y-77420643D01*
X90801283Y-77447729D01*
X90801282Y-77447730D01*
X91472554Y-78119000D01*
X91449840Y-78119000D01*
X91352939Y-78144964D01*
X91266060Y-78195124D01*
X91195124Y-78266060D01*
X91144964Y-78352939D01*
X91119000Y-78449840D01*
X91119000Y-78472552D01*
X90447730Y-77801282D01*
X90447729Y-77801283D01*
X90420643Y-77838564D01*
X90330458Y-78015561D01*
X90322431Y-78040266D01*
X90282993Y-78097941D01*
X90218634Y-78125139D01*
X90149788Y-78113224D01*
X90098312Y-78065980D01*
X90080500Y-78001947D01*
X90080500Y-72927648D01*
X90929500Y-72927648D01*
X90929500Y-73132351D01*
X90961522Y-73334534D01*
X91024781Y-73529223D01*
X91117715Y-73711613D01*
X91238028Y-73877213D01*
X91382786Y-74021971D01*
X91537749Y-74134556D01*
X91548390Y-74142287D01*
X91664607Y-74201503D01*
X91730776Y-74235218D01*
X91730778Y-74235218D01*
X91730781Y-74235220D01*
X91835137Y-74269127D01*
X91925465Y-74298477D01*
X92026557Y-74314488D01*
X92127648Y-74330500D01*
X92127649Y-74330500D01*
X92332351Y-74330500D01*
X92332352Y-74330500D01*
X92534534Y-74298477D01*
X92729219Y-74235220D01*
X92911610Y-74142287D01*
X93004590Y-74074732D01*
X93077213Y-74021971D01*
X93077215Y-74021968D01*
X93077219Y-74021966D01*
X93202366Y-73896819D01*
X93263689Y-73863334D01*
X93290047Y-73860500D01*
X134678256Y-73860500D01*
X134745295Y-73880185D01*
X134778575Y-73911616D01*
X134848030Y-74007215D01*
X134992786Y-74151971D01*
X135107368Y-74235218D01*
X135158390Y-74272287D01*
X135272639Y-74330500D01*
X135340776Y-74365218D01*
X135340778Y-74365218D01*
X135340781Y-74365220D01*
X135445137Y-74399127D01*
X135535465Y-74428477D01*
X135636557Y-74444488D01*
X135737648Y-74460500D01*
X135737649Y-74460500D01*
X135942351Y-74460500D01*
X135942352Y-74460500D01*
X136144534Y-74428477D01*
X136339219Y-74365220D01*
X136521610Y-74272287D01*
X136614590Y-74204732D01*
X136687213Y-74151971D01*
X136687215Y-74151968D01*
X136687219Y-74151966D01*
X136831966Y-74007219D01*
X136831968Y-74007215D01*
X136831971Y-74007213D01*
X136901425Y-73911616D01*
X136952287Y-73841610D01*
X137045220Y-73659219D01*
X137108477Y-73464534D01*
X137140500Y-73262352D01*
X137140500Y-73057648D01*
X137108477Y-72855466D01*
X137045220Y-72660781D01*
X137045218Y-72660778D01*
X137045218Y-72660776D01*
X137011503Y-72594607D01*
X136952287Y-72478390D01*
X136944556Y-72467749D01*
X136831971Y-72312786D01*
X136687213Y-72168028D01*
X136521613Y-72047715D01*
X136521612Y-72047714D01*
X136521610Y-72047713D01*
X136464653Y-72018691D01*
X136339223Y-71954781D01*
X136144534Y-71891522D01*
X135969995Y-71863878D01*
X135942352Y-71859500D01*
X135737648Y-71859500D01*
X135713329Y-71863351D01*
X135535465Y-71891522D01*
X135340776Y-71954781D01*
X135158386Y-72047715D01*
X134992786Y-72168028D01*
X134848028Y-72312786D01*
X134727715Y-72478385D01*
X134720883Y-72491795D01*
X134672909Y-72542591D01*
X134610398Y-72559500D01*
X93525841Y-72559500D01*
X93458802Y-72539815D01*
X93415356Y-72491795D01*
X93394279Y-72450431D01*
X93342287Y-72348390D01*
X93334556Y-72337749D01*
X93221971Y-72182786D01*
X93077213Y-72038028D01*
X92911613Y-71917715D01*
X92911612Y-71917714D01*
X92911610Y-71917713D01*
X92854653Y-71888691D01*
X92729223Y-71824781D01*
X92534534Y-71761522D01*
X92359995Y-71733878D01*
X92332352Y-71729500D01*
X92127648Y-71729500D01*
X92103329Y-71733351D01*
X91925465Y-71761522D01*
X91730776Y-71824781D01*
X91548386Y-71917715D01*
X91382786Y-72038028D01*
X91238028Y-72182786D01*
X91117715Y-72348386D01*
X91024781Y-72530776D01*
X90961522Y-72725465D01*
X90929500Y-72927648D01*
X90080500Y-72927648D01*
X90080500Y-69091654D01*
X102005001Y-69091654D01*
X102015319Y-69192652D01*
X102069546Y-69356300D01*
X102069551Y-69356311D01*
X102160052Y-69503034D01*
X102160055Y-69503038D01*
X102281961Y-69624944D01*
X102281965Y-69624947D01*
X102428688Y-69715448D01*
X102428699Y-69715453D01*
X102592347Y-69769680D01*
X102693352Y-69779999D01*
X102730000Y-69779999D01*
X103230000Y-69779999D01*
X103266640Y-69779999D01*
X103266654Y-69779998D01*
X103367652Y-69769680D01*
X103531300Y-69715453D01*
X103531311Y-69715448D01*
X103678034Y-69624947D01*
X103678038Y-69624944D01*
X103799944Y-69503038D01*
X103799947Y-69503034D01*
X103890448Y-69356311D01*
X103890453Y-69356300D01*
X103944680Y-69192652D01*
X103954999Y-69091654D01*
X103955000Y-69091641D01*
X103955000Y-68992500D01*
X103230000Y-68992500D01*
X103230000Y-69779999D01*
X102730000Y-69779999D01*
X102730000Y-68992500D01*
X102005001Y-68992500D01*
X102005001Y-69091654D01*
X90080500Y-69091654D01*
X90080500Y-66348070D01*
X90100185Y-66281031D01*
X90131613Y-66247753D01*
X90277219Y-66141966D01*
X90421966Y-65997219D01*
X90421968Y-65997215D01*
X90421971Y-65997213D01*
X90474732Y-65924590D01*
X90542287Y-65831610D01*
X90635220Y-65649219D01*
X90698477Y-65454534D01*
X90730500Y-65252352D01*
X90730500Y-65047648D01*
X90698477Y-64845466D01*
X90694060Y-64831873D01*
X90635218Y-64650776D01*
X90601503Y-64584607D01*
X90542287Y-64468390D01*
X90499679Y-64409744D01*
X90421971Y-64302786D01*
X90277213Y-64158028D01*
X90111613Y-64037715D01*
X90111612Y-64037714D01*
X90111610Y-64037713D01*
X90054653Y-64008691D01*
X89929223Y-63944781D01*
X89734534Y-63881522D01*
X89559995Y-63853878D01*
X89532352Y-63849500D01*
X89327648Y-63849500D01*
X89303329Y-63853351D01*
X89125465Y-63881522D01*
X88930776Y-63944781D01*
X88748386Y-64037715D01*
X88582786Y-64158028D01*
X88438028Y-64302786D01*
X88317715Y-64468386D01*
X88224781Y-64650776D01*
X88161522Y-64845465D01*
X88129500Y-65047648D01*
X68500500Y-65047648D01*
X68500500Y-58401577D01*
X69749500Y-58401577D01*
X69749500Y-58598422D01*
X69780290Y-58792826D01*
X69841117Y-58980029D01*
X69892591Y-59081051D01*
X69930476Y-59155405D01*
X70046172Y-59314646D01*
X70185354Y-59453828D01*
X70344595Y-59569524D01*
X70374437Y-59584729D01*
X70519970Y-59658882D01*
X70519972Y-59658882D01*
X70519975Y-59658884D01*
X70620317Y-59691487D01*
X70707173Y-59719709D01*
X70901578Y-59750500D01*
X70901583Y-59750500D01*
X71098422Y-59750500D01*
X71292826Y-59719709D01*
X71333020Y-59706649D01*
X71480025Y-59658884D01*
X71655405Y-59569524D01*
X71814646Y-59453828D01*
X71953828Y-59314646D01*
X72069524Y-59155405D01*
X72158884Y-58980025D01*
X72219709Y-58792826D01*
X72220520Y-58787708D01*
X72250500Y-58598422D01*
X72250500Y-58401577D01*
X80749500Y-58401577D01*
X80749500Y-58598422D01*
X80780290Y-58792826D01*
X80841117Y-58980029D01*
X80892591Y-59081051D01*
X80930476Y-59155405D01*
X81046172Y-59314646D01*
X81185354Y-59453828D01*
X81344595Y-59569524D01*
X81374437Y-59584729D01*
X81519970Y-59658882D01*
X81519972Y-59658882D01*
X81519975Y-59658884D01*
X81620317Y-59691487D01*
X81707173Y-59719709D01*
X81901578Y-59750500D01*
X81901583Y-59750500D01*
X82098422Y-59750500D01*
X82292826Y-59719709D01*
X82333020Y-59706649D01*
X82480025Y-59658884D01*
X82655405Y-59569524D01*
X82814646Y-59453828D01*
X82953828Y-59314646D01*
X83069524Y-59155405D01*
X83158884Y-58980025D01*
X83219709Y-58792826D01*
X83220520Y-58787708D01*
X83250500Y-58598422D01*
X83250500Y-58401577D01*
X83219709Y-58207173D01*
X83181474Y-58089500D01*
X83158884Y-58019975D01*
X83158882Y-58019972D01*
X83158882Y-58019970D01*
X83069523Y-57844594D01*
X83051087Y-57819219D01*
X82953828Y-57685354D01*
X82814646Y-57546172D01*
X82655405Y-57430476D01*
X82654255Y-57429890D01*
X82480029Y-57341117D01*
X82292826Y-57280290D01*
X82098422Y-57249500D01*
X82098417Y-57249500D01*
X81901583Y-57249500D01*
X81901578Y-57249500D01*
X81707173Y-57280290D01*
X81519970Y-57341117D01*
X81344594Y-57430476D01*
X81264764Y-57488477D01*
X81185354Y-57546172D01*
X81185352Y-57546174D01*
X81185351Y-57546174D01*
X81046174Y-57685351D01*
X81046174Y-57685352D01*
X81046172Y-57685354D01*
X80997621Y-57752179D01*
X80930476Y-57844594D01*
X80841117Y-58019970D01*
X80780290Y-58207173D01*
X80749500Y-58401577D01*
X72250500Y-58401577D01*
X72219709Y-58207173D01*
X72181474Y-58089500D01*
X72158884Y-58019975D01*
X72158882Y-58019972D01*
X72158882Y-58019970D01*
X72069523Y-57844594D01*
X72051087Y-57819219D01*
X71953828Y-57685354D01*
X71814646Y-57546172D01*
X71655405Y-57430476D01*
X71654255Y-57429890D01*
X71480029Y-57341117D01*
X71292826Y-57280290D01*
X71098422Y-57249500D01*
X71098417Y-57249500D01*
X70901583Y-57249500D01*
X70901578Y-57249500D01*
X70707173Y-57280290D01*
X70519970Y-57341117D01*
X70344594Y-57430476D01*
X70264764Y-57488477D01*
X70185354Y-57546172D01*
X70185352Y-57546174D01*
X70185351Y-57546174D01*
X70046174Y-57685351D01*
X70046174Y-57685352D01*
X70046172Y-57685354D01*
X69997621Y-57752179D01*
X69930476Y-57844594D01*
X69841117Y-58019970D01*
X69780290Y-58207173D01*
X69749500Y-58401577D01*
X68500500Y-58401577D01*
X68500500Y-53141902D01*
X72639500Y-53141902D01*
X72639500Y-53378097D01*
X72676446Y-53611368D01*
X72749433Y-53835996D01*
X72832562Y-53999144D01*
X72856657Y-54046433D01*
X72995483Y-54237510D01*
X73162490Y-54404517D01*
X73353567Y-54543343D01*
X73427942Y-54581239D01*
X73564003Y-54650566D01*
X73564005Y-54650566D01*
X73564008Y-54650568D01*
X73684412Y-54689689D01*
X73788631Y-54723553D01*
X74021903Y-54760500D01*
X74021908Y-54760500D01*
X74258097Y-54760500D01*
X74491368Y-54723553D01*
X74715992Y-54650568D01*
X74926433Y-54543343D01*
X75117510Y-54404517D01*
X75284517Y-54237510D01*
X75423343Y-54046433D01*
X75530568Y-53835992D01*
X75603553Y-53611368D01*
X75623146Y-53487664D01*
X75640500Y-53378097D01*
X75640500Y-53141902D01*
X75603553Y-52908631D01*
X75551302Y-52747820D01*
X75530568Y-52684008D01*
X75530566Y-52684005D01*
X75530566Y-52684003D01*
X75465002Y-52555328D01*
X75423343Y-52473567D01*
X75284517Y-52282490D01*
X75117510Y-52115483D01*
X74926433Y-51976657D01*
X74842151Y-51933713D01*
X74715996Y-51869433D01*
X74491368Y-51796446D01*
X74258097Y-51759500D01*
X74258092Y-51759500D01*
X74021908Y-51759500D01*
X74021903Y-51759500D01*
X73788631Y-51796446D01*
X73564003Y-51869433D01*
X73353566Y-51976657D01*
X73244550Y-52055862D01*
X73162490Y-52115483D01*
X73162488Y-52115485D01*
X73162487Y-52115485D01*
X72995485Y-52282487D01*
X72995485Y-52282488D01*
X72995483Y-52282490D01*
X72941901Y-52356239D01*
X72856657Y-52473566D01*
X72749433Y-52684003D01*
X72676446Y-52908631D01*
X72639500Y-53141902D01*
X68500500Y-53141902D01*
X68500500Y-41503051D01*
X68500649Y-41496967D01*
X68513157Y-41242351D01*
X68517052Y-41163068D01*
X68518245Y-41150962D01*
X68533444Y-41048500D01*
X68566849Y-40823296D01*
X68569218Y-40811385D01*
X68649710Y-40490043D01*
X68653232Y-40478431D01*
X68666302Y-40441902D01*
X72639500Y-40441902D01*
X72639500Y-40678097D01*
X72676446Y-40911368D01*
X72749433Y-41135996D01*
X72836568Y-41307007D01*
X72856657Y-41346433D01*
X72995483Y-41537510D01*
X73162490Y-41704517D01*
X73353567Y-41843343D01*
X73452991Y-41894002D01*
X73564003Y-41950566D01*
X73564005Y-41950566D01*
X73564008Y-41950568D01*
X73660373Y-41981879D01*
X73788631Y-42023553D01*
X74021903Y-42060500D01*
X74021908Y-42060500D01*
X74258097Y-42060500D01*
X74491368Y-42023553D01*
X74545987Y-42005806D01*
X74715992Y-41950568D01*
X74926433Y-41843343D01*
X75117510Y-41704517D01*
X75284517Y-41537510D01*
X75423343Y-41346433D01*
X75530568Y-41135992D01*
X75603553Y-40911368D01*
X75618886Y-40814561D01*
X75640500Y-40678097D01*
X75640500Y-40441902D01*
X75603553Y-40208631D01*
X75551302Y-40047820D01*
X75530568Y-39984008D01*
X75530566Y-39984005D01*
X75530566Y-39984003D01*
X75462464Y-39850347D01*
X75423343Y-39773567D01*
X75284517Y-39582490D01*
X75117510Y-39415483D01*
X74926433Y-39276657D01*
X74842151Y-39233713D01*
X74715996Y-39169433D01*
X74491368Y-39096446D01*
X74258097Y-39059500D01*
X74258092Y-39059500D01*
X74021908Y-39059500D01*
X74021903Y-39059500D01*
X73788631Y-39096446D01*
X73564003Y-39169433D01*
X73353566Y-39276657D01*
X73244550Y-39355862D01*
X73162490Y-39415483D01*
X73162488Y-39415485D01*
X73162487Y-39415485D01*
X72995485Y-39582487D01*
X72995485Y-39582488D01*
X72995483Y-39582490D01*
X72946434Y-39650000D01*
X72856657Y-39773566D01*
X72749433Y-39984003D01*
X72676446Y-40208631D01*
X72639500Y-40441902D01*
X68666302Y-40441902D01*
X68764835Y-40166525D01*
X68769476Y-40155318D01*
X68911124Y-39855828D01*
X68916840Y-39845136D01*
X69087145Y-39560998D01*
X69093888Y-39550905D01*
X69291232Y-39284818D01*
X69298935Y-39275433D01*
X69521405Y-39029975D01*
X69529975Y-39021405D01*
X69775433Y-38798935D01*
X69784818Y-38791232D01*
X70050905Y-38593888D01*
X70060998Y-38587145D01*
X70345136Y-38416840D01*
X70355828Y-38411124D01*
X70655318Y-38269476D01*
X70666525Y-38264835D01*
X70978412Y-38153239D01*
X70990043Y-38149710D01*
X71311385Y-38069218D01*
X71323296Y-38066849D01*
X71650962Y-38018244D01*
X71663068Y-38017052D01*
X71996967Y-38000648D01*
X72003051Y-38000500D01*
X72065892Y-38000500D01*
X87164423Y-38000500D01*
X87231462Y-38020185D01*
G37*
G04 #@! TD.AperFunction*
D21*
X68000000Y-41500000D02*
G75*
G02*
X72000000Y-37500000I4000000J0D01*
G01*
X68000000Y-80500000D02*
X68000000Y-41500000D01*
X72000000Y-37500000D02*
X135000000Y-37500000D01*
X72000000Y-84500000D02*
G75*
G02*
X68000000Y-80500000I0J4000000D01*
G01*
X135000000Y-37500000D02*
G75*
G02*
X139000000Y-41500000I0J-4000000D01*
G01*
X135000000Y-84500000D02*
X72000000Y-84500000D01*
X139000000Y-41500000D02*
X139000000Y-80500000D01*
X139000000Y-80500000D02*
G75*
G02*
X135000000Y-84500000I-4000000J0D01*
G01*
M02*
