M48
; DRILL file KiCad 10.0.1 date 2026-05-08T17:52:31
; FORMAT={-:-/ absolute / metric / decimal}
; #@! TF.CreationDate,2026-05-08T17:52:31+03:00
; #@! TF.GenerationSoftware,Kicad,Pcbnew,10.0.1
; #@! TF.FileFunction,Plated,1,2,PTH
FMAT,2
METRIC
; #@! TA.AperFunction,Plated,PTH,ComponentDrill
T1C0.762
; #@! TA.AperFunction,Plated,PTH,ViaDrill
T2C1.000
; #@! TA.AperFunction,Plated,PTH,ComponentDrill
T3C1.000
; #@! TA.AperFunction,Plated,PTH,ComponentDrill
T4C1.100
; #@! TA.AperFunction,Plated,PTH,ComponentDrill
T5C1.300
%
G90
G05
T1
X91.5Y-78.5
X93.5Y-78.5
X95.5Y-78.5
X97.5Y-78.5
X128.207Y-40.667
X128.207Y-42.667
X128.207Y-44.667
X128.207Y-46.667
T2
X85.06Y-55.75
X89.43Y-65.15
X92.23Y-73.03
X97.41Y-41.14
X97.52Y-81.53
X99.14Y-56.22
X100.42Y-44.95
X101.45Y-41.23
X104.18Y-59.74
X105.8Y-64.93
X111.3Y-59.39
X123.75Y-55.19
X130.32Y-62.01
X131.27Y-57.32
X135.27Y-48.76
X135.84Y-73.16
T3
X88.0Y-39.34
X88.0Y-41.88
X88.0Y-44.42
X88.0Y-46.96
X88.0Y-49.5
X88.0Y-52.04
X88.0Y-54.58
X88.0Y-58.46
X88.0Y-61.0
X128.115Y-51.725
X128.115Y-54.265
X133.0Y-41.0
X133.0Y-43.54
T4
X136.0Y-59.0
X136.0Y-61.54
X136.0Y-64.08
T5
X126.5Y-79.832
X131.5Y-79.832
M30
